<svg width="602" height="524" viewBox="0 0 602 524" fill="none" xmlns="http://www.w3.org/2000/svg">
<path d="M494.377 423.099C497.481 424.349 505.07 424.15 505.081 424.15C505.093 424.15 503.449 419.568 503.301 419.295C501.635 416.09 496.374 410.783 492.084 411.319C491.375 411.426 490.699 411.669 490.099 412.033C489.499 412.397 488.989 412.872 488.602 413.429C488.214 413.986 487.958 414.612 487.85 415.266C487.742 415.919 487.785 416.587 487.975 417.224C488.683 420.041 491.73 422.048 494.377 423.099Z" fill="#2F88FF"/>
<path d="M497.002 443.381C500.22 443.822 506.999 442.004 507.535 441.867C508.652 445.45 510.024 448.96 511.643 452.376C512.579 454.362 513.583 456.338 514.621 458.303L513.355 456.632C510.821 453.942 504.225 450.117 500.243 451.672C499.588 451.946 499.003 452.343 498.527 452.839C498.05 453.335 497.692 453.918 497.477 454.549C497.262 455.181 497.193 455.848 497.277 456.505C497.36 457.163 497.593 457.797 497.961 458.366C499.433 460.836 502.947 462.055 505.812 462.433C508.676 462.811 514.519 461.382 516.082 460.993C516.493 461.74 516.881 462.496 517.292 463.242C519.254 466.847 521.229 470.43 523.055 473.993C523.694 475.254 524.276 476.515 524.858 477.776C524.31 477.03 523.842 476.41 523.716 476.326C521.183 473.636 514.587 469.8 510.605 471.366C509.951 471.64 509.367 472.039 508.892 472.535C508.416 473.031 508.059 473.613 507.844 474.245C507.629 474.876 507.56 475.542 507.643 476.199C507.725 476.856 507.957 477.49 508.322 478.06C509.794 480.519 513.321 481.738 516.173 482.127C519.026 482.516 524.31 481.212 526.136 480.75C526.695 482.053 527.277 483.367 527.733 484.649C528.041 485.542 528.407 486.372 528.658 487.276C528.909 488.18 529.194 489.052 529.456 489.924C529.901 491.627 530.369 493.382 530.757 495.053C531.031 496.208 531.282 497.322 531.522 498.436C530.906 497.186 529.628 494.748 529.491 494.548C527.437 491.543 521.503 486.835 517.349 487.812C516.658 487.994 516.016 488.307 515.465 488.732C514.914 489.157 514.467 489.684 514.151 490.279C513.836 490.873 513.66 491.522 513.635 492.184C513.61 492.845 513.736 493.504 514.005 494.117C515.055 496.765 518.342 498.457 521.092 499.235C524.139 500.086 530.86 499.309 531.704 499.235C532.104 501.085 532.48 502.892 532.846 504.594C533.565 508.367 534.112 511.741 534.523 514.599H537.353C536.862 511.646 536.212 508.115 535.368 504.164C534.957 502.283 534.489 500.286 533.987 498.226C536.016 497.483 537.994 496.627 539.909 495.662C542.123 497.879 547.795 500.465 548.525 500.79C547.749 502.535 546.985 504.227 546.243 505.814C544.668 509.145 543.184 512.119 541.872 514.599H544.93C546.072 512.287 547.304 509.649 548.605 506.738C549.392 504.962 550.203 503.05 551.013 501.085C551.823 501.242 558.487 502.493 561.591 501.841C564.398 501.263 567.811 499.792 569.066 497.228C569.384 496.635 569.563 495.987 569.591 495.326C569.62 494.665 569.497 494.007 569.232 493.392C568.966 492.778 568.563 492.222 568.049 491.76C567.535 491.299 566.921 490.942 566.247 490.712C562.15 489.451 555.885 493.739 553.592 496.597C553.455 496.765 552.211 498.752 551.446 500.013C551.777 499.203 552.097 498.426 552.428 497.596C553.078 495.956 553.683 494.296 554.334 492.52L555.189 489.882C555.498 489.01 555.703 488.043 555.965 487.118C556.513 484.964 556.97 482.757 557.369 480.519C558.932 481.044 564.513 482.831 567.4 482.621C570.287 482.41 573.893 481.465 575.559 479.111C575.972 478.568 576.256 477.952 576.393 477.301C576.53 476.651 576.517 475.981 576.355 475.336C576.192 474.691 575.884 474.084 575.45 473.556C575.016 473.027 574.466 472.589 573.836 472.269C569.99 470.441 563.098 473.814 560.359 476.326C560.199 476.473 558.453 478.428 557.517 479.594C557.746 478.249 557.974 476.914 558.168 475.548C558.693 471.597 559.104 467.582 559.526 463.579C559.651 462.349 559.8 461.13 559.937 459.911C560.496 460.1 567.08 462.36 570.31 462.149C573.197 461.96 576.803 460.993 578.469 458.629C578.882 458.087 579.166 457.472 579.303 456.822C579.44 456.173 579.427 455.504 579.264 454.859C579.101 454.215 578.793 453.609 578.359 453.082C577.925 452.554 577.376 452.117 576.746 451.798C572.9 449.97 566.008 453.343 563.269 455.844C563.063 456.033 560.564 458.923 559.959 459.69C560.268 457 560.61 454.32 561.101 451.693C561.681 448.144 562.512 444.634 563.588 441.184C563.851 441.268 570.709 443.654 574.03 443.444C576.906 443.255 580.512 442.277 582.178 439.923C582.591 439.382 582.876 438.767 583.013 438.118C583.151 437.469 583.139 436.801 582.978 436.156C582.816 435.512 582.509 434.906 582.076 434.378C581.643 433.85 581.095 433.412 580.466 433.093C576.62 431.264 569.728 434.627 566.989 437.138C566.772 437.338 564.079 440.438 563.634 441.037C563.634 440.838 563.737 440.627 563.805 440.428C565.001 436.988 566.529 433.654 568.37 430.465C569.351 428.7 570.401 427.05 571.451 425.474C572.683 426.041 578.298 428.563 581.333 428.679C584.369 428.795 587.918 428.174 589.858 426.01C590.332 425.513 590.687 424.93 590.901 424.298C591.115 423.666 591.182 423 591.098 422.343C591.014 421.686 590.781 421.053 590.414 420.484C590.047 419.916 589.554 419.424 588.967 419.042C585.361 416.836 578.115 419.484 575.091 421.701C574.92 421.817 573.402 423.214 572.307 424.244C572.797 423.54 573.288 422.804 573.779 422.142C575.582 419.631 577.408 417.434 579.039 415.501C579.975 414.45 580.854 413.399 581.676 412.537C583.193 412.537 589.321 412.338 591.946 411.182C594.571 410.026 597.549 407.945 598.177 405.202C598.348 404.56 598.371 403.891 598.244 403.239C598.117 402.588 597.843 401.968 597.44 401.421C597.036 400.873 596.513 400.409 595.902 400.06C595.292 399.71 594.609 399.482 593.897 399.391C589.595 398.971 584.483 404.393 582.919 407.651C582.782 407.924 581.208 412.548 581.288 412.548H581.379C580.557 413.399 579.701 414.324 578.777 415.354C577.1 417.256 575.217 419.421 573.334 421.901C571.282 424.554 569.4 427.316 567.696 430.171C565.77 433.363 564.158 436.708 562.881 440.165C562.886 440.207 562.886 440.249 562.881 440.291C562.881 439.125 562.881 435.856 562.812 435.604C562.322 432.084 559.115 425.537 554.824 424.812C554.114 424.709 553.388 424.745 552.693 424.918C551.999 425.091 551.352 425.397 550.795 425.815C550.237 426.233 549.781 426.755 549.457 427.346C549.133 427.937 548.948 428.585 548.913 429.246C548.673 432.042 550.876 434.848 553.021 436.603C555.452 438.599 562.15 440.533 562.721 440.68C561.515 444.226 560.565 447.842 559.88 451.504C559.469 453.606 559.126 455.792 558.807 457.956C558.807 456.906 558.807 456.044 558.75 455.918C558.259 452.397 555.041 445.85 550.762 445.125C550.052 445.023 549.326 445.059 548.633 445.232C547.939 445.405 547.293 445.711 546.736 446.129C546.179 446.547 545.725 447.069 545.402 447.66C545.079 448.252 544.895 448.899 544.862 449.56C544.611 452.355 546.825 455.161 548.97 456.916C551.115 458.671 556.867 460.468 558.373 460.909C558.27 461.74 558.145 462.57 558.042 463.41C557.517 467.404 557.015 471.397 556.399 475.296C556.182 476.673 555.92 478.018 555.646 479.363C555.646 478.47 555.646 477.713 555.646 477.597C555.144 474.077 551.937 467.53 547.658 466.805C546.948 466.702 546.222 466.739 545.529 466.912C544.835 467.085 544.189 467.39 543.632 467.809C543.076 468.227 542.621 468.749 542.298 469.34C541.975 469.931 541.791 470.578 541.758 471.24C541.507 474.035 543.709 476.841 545.866 478.596C548.023 480.351 553.204 481.969 554.995 482.505C554.687 483.882 554.368 485.258 554.003 486.572C553.717 487.465 553.523 488.348 553.192 489.231C552.861 490.113 552.576 490.986 552.268 491.847C551.618 493.497 550.967 495.2 550.282 496.786C549.826 497.89 549.358 498.941 548.902 500.002C549.13 498.636 549.529 495.946 549.529 495.725C549.49 492.593 548.574 489.524 546.87 486.814C546.882 486.462 546.859 486.11 546.802 485.763C546.711 485.106 546.471 484.475 546.098 483.91C545.725 483.344 545.226 482.857 544.636 482.481C544.045 482.104 543.375 481.846 542.668 481.724C541.962 481.601 541.236 481.617 540.537 481.769C536.36 482.82 533.69 489.546 533.507 493.098C533.507 493.308 533.644 495.599 533.77 497.039C533.553 496.198 533.359 495.389 533.131 494.527C532.697 492.825 532.207 491.133 531.682 489.273C531.396 488.411 531.111 487.528 530.814 486.645C530.518 485.763 530.141 484.859 529.81 483.955C528.977 481.853 528.03 479.752 527.026 477.724C528.646 477.366 534.375 476.032 536.668 474.403C538.962 472.774 541.381 470.136 541.359 467.33C541.38 466.668 541.25 466.01 540.976 465.397C540.703 464.785 540.292 464.232 539.77 463.776C539.249 463.32 538.629 462.97 537.951 462.75C537.273 462.529 536.552 462.443 535.835 462.496C531.533 462.927 527.847 469.243 527.026 472.721C527.026 472.942 526.718 475.496 526.604 476.925C525.987 475.685 525.382 474.445 524.721 473.215C522.803 469.653 520.738 466.09 518.684 462.538C518.056 461.487 517.451 460.363 516.835 459.27C517.417 459.154 524.253 457.694 526.832 455.865C529.114 454.257 531.545 451.609 531.522 448.793C531.542 448.132 531.41 447.474 531.136 446.863C530.862 446.252 530.45 445.701 529.929 445.246C529.408 444.791 528.789 444.442 528.112 444.222C527.434 444.002 526.714 443.916 525.999 443.969C521.697 444.4 518.011 450.705 517.189 454.194C517.121 454.457 516.767 458.135 516.721 459.07C515.363 456.674 514.039 454.268 512.841 451.851C511.2 448.589 509.79 445.234 508.619 441.804C508.893 441.752 516.036 440.26 518.673 438.389C520.955 436.771 523.397 434.133 523.374 431.317C523.394 430.655 523.262 429.996 522.987 429.384C522.712 428.772 522.3 428.221 521.778 427.765C521.255 427.31 520.635 426.962 519.956 426.742C519.277 426.523 518.556 426.438 517.839 426.493C513.537 426.924 509.851 433.229 509.03 436.708C508.961 436.991 508.585 440.911 508.562 441.668C508.562 441.468 508.402 441.268 508.345 441.069C507.252 437.599 506.496 434.048 506.086 430.455C505.846 428.479 505.732 426.577 505.675 424.728C507.033 424.57 513.252 423.803 515.831 422.374C518.41 420.944 521.023 418.611 521.343 415.816C521.443 415.16 521.391 414.492 521.191 413.856C520.992 413.22 520.649 412.63 520.185 412.124C519.72 411.618 519.146 411.208 518.498 410.921C517.85 410.634 517.143 410.475 516.424 410.457C512.099 410.457 507.638 416.342 506.439 419.725C506.371 419.915 505.937 421.827 505.652 423.267C505.652 422.426 505.652 421.564 505.652 420.755C505.652 417.75 505.869 414.986 506.074 412.548C506.2 411.161 506.348 409.91 506.496 408.744C507.752 407.945 512.75 404.698 514.29 402.365C515.831 400.032 516.949 396.827 515.808 394.242C515.567 393.618 515.186 393.047 514.69 392.568C514.194 392.088 513.594 391.71 512.928 391.459C512.263 391.207 511.548 391.087 510.829 391.106C510.11 391.126 509.404 391.285 508.756 391.572C504.91 393.401 503.906 400.526 504.545 404.036C504.545 404.341 506.051 408.996 506.108 408.954L506.188 408.901C506.017 410.026 505.857 411.234 505.698 412.558C505.435 414.996 505.161 417.76 505.081 420.787C504.963 424.043 505.051 427.303 505.344 430.549C505.649 434.19 506.306 437.798 507.307 441.332C507.302 441.373 507.302 441.416 507.307 441.458C506.622 440.47 504.614 437.78 504.442 437.58C501.909 434.9 495.313 431.064 491.33 432.62C490.677 432.896 490.093 433.295 489.617 433.792C489.142 434.289 488.785 434.872 488.569 435.504C488.354 436.136 488.286 436.803 488.368 437.461C488.451 438.119 488.682 438.754 489.048 439.324C490.623 441.783 494.126 443.002 497.002 443.381Z" fill="#2F88FF"/>
<path d="M571.177 424.675C571.245 424.675 572.558 420.02 572.603 419.715C573.14 416.195 571.918 409.101 568.039 407.367C567.383 407.096 566.672 406.954 565.953 406.952C565.235 406.95 564.523 407.087 563.865 407.354C563.208 407.622 562.619 408.014 562.136 408.505C561.654 408.996 561.289 409.575 561.066 410.205C560.028 412.853 561.351 416.089 562.915 418.328C564.741 420.997 571.177 424.665 571.177 424.675Z" fill="#2F88FF"/>
<path d="M83.8018 423.099C86.9057 424.349 94.5058 424.15 94.5058 424.15C94.5058 424.15 92.8739 419.568 92.737 419.295C91.0709 416.09 85.7988 410.783 81.5081 411.319C80.7995 411.426 80.1233 411.669 79.5235 412.033C78.9236 412.397 78.4134 412.872 78.0261 413.429C77.6387 413.986 77.3828 414.612 77.2749 415.266C77.1671 415.919 77.2096 416.587 77.3999 417.224C78.1188 420.041 81.1657 422.048 83.8018 423.099Z" fill="#2F88FF"/>
<path d="M86.4268 443.381C89.6449 443.822 96.4233 442.004 96.9597 441.868C98.0765 445.45 99.4489 448.961 101.068 452.376C102.004 454.363 103.008 456.338 104.046 458.303C103.43 457.473 102.905 456.738 102.78 456.632C100.246 453.942 93.6503 450.117 89.6677 451.672C89.0141 451.947 88.4306 452.345 87.955 452.841C87.4794 453.337 87.1224 453.92 86.9072 454.551C86.692 455.182 86.6233 455.848 86.7057 456.506C86.7881 457.163 87.0196 457.797 87.3854 458.366C88.8575 460.836 92.3836 462.055 95.2365 462.433C98.0894 462.812 103.944 461.382 105.507 460.994C105.918 461.74 106.306 462.496 106.717 463.243C108.679 466.847 110.653 470.431 112.422 473.993C113.061 475.254 113.643 476.515 114.237 477.776C113.678 477.03 113.21 476.41 113.096 476.326C110.574 473.636 103.966 469.8 99.9837 471.366C99.3301 471.641 98.7466 472.039 98.271 472.535C97.7954 473.031 97.4384 473.613 97.2232 474.245C97.008 474.876 96.9393 475.542 97.0217 476.199C97.1041 476.856 97.3357 477.49 97.7014 478.06C99.1735 480.519 102.7 481.738 105.553 482.127C108.405 482.516 113.7 481.213 115.515 480.75C116.074 482.053 116.656 483.367 117.124 484.649C117.421 485.542 117.786 486.372 118.037 487.276C118.288 488.18 118.573 489.052 118.836 489.924C119.281 491.627 119.748 493.382 120.136 495.053C120.422 496.209 120.661 497.323 120.912 498.437C120.285 497.186 119.007 494.748 118.881 494.548C116.816 491.543 110.893 486.835 106.739 487.812C106.048 487.994 105.407 488.307 104.856 488.732C104.305 489.157 103.857 489.684 103.542 490.279C103.227 490.873 103.051 491.522 103.026 492.184C103 492.845 103.126 493.504 103.396 494.117C104.434 496.766 107.721 498.458 110.482 499.235C113.518 500.086 120.239 499.309 121.084 499.235C121.483 501.085 121.86 502.892 122.225 504.595C122.944 508.367 123.491 511.741 123.902 514.599H126.744C126.242 511.646 125.603 508.115 124.747 504.164C124.347 502.283 123.879 500.286 123.366 498.226C125.409 497.469 127.398 496.596 129.323 495.61C131.537 497.827 137.208 500.412 137.938 500.738C137.174 502.482 136.398 504.174 135.656 505.761C134.093 509.092 132.598 512.066 131.286 514.547H134.355C135.496 512.235 136.729 509.597 138.018 506.686C138.817 504.91 139.616 502.997 140.426 501.032C141.248 501.19 147.901 502.44 151.005 501.789C153.812 501.211 157.224 499.74 158.491 497.175C158.808 496.582 158.987 495.933 159.015 495.272C159.043 494.611 158.919 493.951 158.652 493.337C158.385 492.723 157.981 492.167 157.466 491.705C156.95 491.244 156.335 490.888 155.661 490.66C151.564 489.399 145.299 493.687 143.005 496.545C142.868 496.713 141.624 498.699 140.86 499.96C141.191 499.151 141.522 498.373 141.841 497.543C142.492 495.904 143.096 494.244 143.747 492.468L144.603 489.83C144.911 488.958 145.116 487.991 145.379 487.066C145.938 484.912 146.383 482.705 146.782 480.466C148.346 480.992 153.926 482.778 156.825 482.568C159.723 482.358 163.306 481.412 164.972 479.058C165.384 478.516 165.667 477.9 165.804 477.251C165.941 476.601 165.929 475.932 165.767 475.287C165.606 474.643 165.3 474.036 164.868 473.507C164.436 472.978 163.888 472.539 163.261 472.217C159.415 470.389 152.522 473.762 149.784 476.273C149.612 476.421 147.866 478.375 146.931 479.542C147.159 478.197 147.399 476.862 147.581 475.496C148.118 471.544 148.517 467.53 148.939 463.526C149.065 462.297 149.213 461.078 149.35 459.859C149.909 460.048 156.494 462.307 159.734 462.097C162.61 461.908 166.216 460.941 167.882 458.577C168.295 458.035 168.579 457.419 168.716 456.77C168.853 456.12 168.84 455.451 168.677 454.807C168.515 454.162 168.206 453.557 167.773 453.029C167.339 452.502 166.789 452.065 166.159 451.746C162.325 449.917 155.432 453.291 152.694 455.792C152.488 455.981 149.978 458.871 149.384 459.638C149.692 456.948 150.023 454.268 150.525 451.641C151.109 448.092 151.944 444.581 153.024 441.132C153.276 441.216 160.134 443.602 163.455 443.391C166.33 443.202 169.948 442.225 171.614 439.871C172.027 439.329 172.311 438.714 172.448 438.064C172.585 437.415 172.571 436.746 172.409 436.101C172.246 435.457 171.938 434.851 171.504 434.324C171.07 433.796 170.52 433.359 169.891 433.04C166.045 431.212 159.152 434.575 156.414 437.086C156.197 437.286 153.504 440.386 153.059 440.985C153.127 440.785 153.161 440.575 153.23 440.375C154.426 436.936 155.953 433.602 157.794 430.413C158.776 428.648 159.826 426.998 160.887 425.421C162.108 425.989 167.734 428.511 170.758 428.627C173.782 428.742 177.354 428.122 179.282 425.957C179.758 425.461 180.115 424.878 180.33 424.246C180.545 423.614 180.612 422.948 180.528 422.29C180.444 421.633 180.21 420.999 179.842 420.43C179.474 419.862 178.98 419.371 178.392 418.99C174.786 416.783 167.54 419.431 164.516 421.649C164.356 421.764 162.827 423.162 161.743 424.192C162.222 423.488 162.713 422.752 163.204 422.09C165.007 419.578 166.832 417.382 168.464 415.448C169.411 414.398 170.279 413.347 171.1 412.485C172.629 412.485 178.746 412.285 181.371 411.129C183.995 409.973 186.974 407.893 187.601 405.15C187.776 404.507 187.802 403.837 187.677 403.185C187.551 402.532 187.278 401.911 186.874 401.362C186.47 400.814 185.945 400.35 185.333 400.001C184.721 399.652 184.035 399.427 183.322 399.338C179.02 398.918 173.919 404.341 172.344 407.598C172.207 407.872 170.632 412.496 170.712 412.496H170.804C169.982 413.347 169.126 414.271 168.202 415.301C166.524 417.203 164.641 419.368 162.77 421.848C160.695 424.501 158.79 427.262 157.064 430.119C155.147 433.315 153.536 436.659 152.248 440.113V440.239C152.248 439.072 152.248 435.804 152.18 435.552C151.678 432.031 148.471 425.484 144.192 424.759C143.482 424.657 142.757 424.693 142.063 424.866C141.369 425.039 140.723 425.345 140.166 425.763C139.61 426.182 139.155 426.703 138.832 427.295C138.509 427.886 138.325 428.533 138.292 429.194C138.041 431.989 140.244 434.795 142.4 436.55C144.82 438.547 151.53 440.48 152.1 440.628C150.885 444.172 149.931 447.788 149.247 451.452C148.836 453.553 148.494 455.739 148.175 457.904C148.175 456.853 148.175 455.991 148.175 455.865C147.684 452.345 144.466 445.798 140.187 445.073C139.476 444.97 138.75 445.007 138.056 445.179C137.362 445.352 136.715 445.658 136.157 446.076C135.599 446.494 135.144 447.016 134.82 447.607C134.495 448.199 134.31 448.846 134.275 449.508C134.024 452.303 136.238 455.109 138.383 456.864C140.529 458.619 146.28 460.416 147.798 460.857C147.684 461.687 147.558 462.517 147.456 463.358C146.931 467.351 146.44 471.345 145.812 475.244C145.596 476.62 145.333 477.965 145.071 479.31C145.071 478.417 145.071 477.661 145.071 477.545C144.569 474.025 141.362 467.478 137.083 466.752C136.373 466.65 135.647 466.686 134.954 466.859C134.26 467.032 133.614 467.338 133.057 467.756C132.5 468.175 132.046 468.697 131.723 469.288C131.4 469.879 131.216 470.526 131.183 471.187C130.932 473.983 133.146 476.788 135.291 478.543C137.436 480.298 142.629 481.917 144.42 482.453C144.101 483.829 143.781 485.206 143.416 486.52C143.142 487.413 142.937 488.296 142.606 489.178C142.275 490.061 141.99 490.933 141.693 491.795C141.042 493.445 140.381 495.147 139.696 496.734C139.239 497.838 138.771 498.888 138.315 499.95C138.543 498.584 138.943 495.893 138.954 495.673C138.904 492.541 137.985 489.473 136.284 486.761C136.296 486.41 136.273 486.058 136.215 485.71C136.124 485.054 135.884 484.423 135.511 483.857C135.138 483.292 134.64 482.805 134.049 482.428C133.458 482.052 132.788 481.794 132.082 481.671C131.376 481.549 130.65 481.564 129.95 481.717C125.774 482.768 123.103 489.494 122.921 493.045C122.921 493.256 123.058 495.547 123.183 496.986C122.967 496.146 122.773 495.336 122.544 494.475C122.111 492.772 121.62 491.08 121.095 489.22C120.81 488.359 120.524 487.476 120.228 486.593C119.931 485.71 119.554 484.807 119.224 483.903C118.39 481.801 117.443 479.699 116.439 477.671C118.06 477.314 123.788 475.979 126.082 474.35C128.376 472.721 130.806 470.084 130.783 467.278C130.802 466.616 130.669 465.958 130.393 465.346C130.117 464.734 129.705 464.183 129.184 463.727C128.662 463.272 128.042 462.922 127.364 462.701C126.686 462.48 125.966 462.392 125.249 462.444C120.947 462.875 117.261 469.191 116.439 472.669C116.439 472.89 116.131 475.443 116.028 476.872C115.412 475.632 114.807 474.392 114.134 473.163C112.217 469.6 110.151 466.038 108.109 462.486C107.481 461.435 106.865 460.311 106.249 459.218C106.831 459.102 113.678 457.641 116.245 455.813C118.527 454.205 120.969 451.557 120.947 448.74C120.967 448.078 120.835 447.42 120.56 446.808C120.285 446.196 119.873 445.644 119.35 445.189C118.828 444.734 118.207 444.385 117.529 444.166C116.85 443.947 116.129 443.862 115.412 443.917C111.11 444.348 107.424 450.653 106.602 454.142C106.602 454.405 106.18 458.083 106.135 459.018C104.788 456.622 103.464 454.215 102.255 451.798C100.613 448.537 99.2031 445.181 98.0323 441.752C98.3062 441.699 105.45 440.207 108.086 438.337C110.368 436.718 112.81 434.081 112.787 431.264C112.808 430.602 112.676 429.944 112.401 429.332C112.126 428.72 111.714 428.168 111.191 427.713C110.669 427.258 110.048 426.909 109.369 426.69C108.691 426.471 107.97 426.386 107.253 426.441C102.951 426.872 99.2648 433.177 98.4431 436.655C98.3861 436.939 97.9981 440.859 97.9867 441.615C97.9182 441.416 97.8269 441.216 97.7585 441.016C96.6724 437.564 95.9201 434.03 95.5104 430.455C95.2707 428.479 95.1566 426.577 95.0996 424.728C96.4575 424.57 102.677 423.803 105.256 422.374C107.835 420.945 110.448 418.612 110.768 415.816C110.867 415.16 110.816 414.493 110.616 413.856C110.417 413.22 110.074 412.63 109.609 412.124C109.145 411.618 108.57 411.208 107.922 410.921C107.275 410.634 106.568 410.476 105.849 410.457C101.524 410.457 97.0624 416.342 95.8641 419.726C95.8641 419.915 95.3735 421.827 95.0768 423.267C95.0768 422.426 95.0768 421.565 95.0768 420.755C95.0768 417.75 95.2936 414.986 95.499 412.548C95.6245 411.161 95.7729 409.91 95.9212 408.744C97.1765 407.945 102.175 404.698 103.715 402.365C105.256 400.032 106.443 396.827 105.324 394.21C105.081 393.583 104.696 393.011 104.195 392.531C103.694 392.051 103.088 391.674 102.418 391.425C101.747 391.176 101.027 391.06 100.305 391.086C99.5825 391.111 98.8742 391.277 98.2263 391.572C94.3921 393.401 93.3764 400.526 94.0155 404.036C94.0155 404.341 95.5218 408.996 95.5903 408.954L95.6587 408.901C95.4876 410.026 95.3278 411.234 95.168 412.559C94.9056 414.997 94.6317 417.76 94.5632 420.787C94.4356 424.043 94.5194 427.303 94.8143 430.55C95.1194 434.19 95.7763 437.798 96.7771 441.332V441.458C96.0924 440.47 94.0954 437.78 93.9128 437.58C91.3794 434.9 84.7836 431.065 80.8009 432.62C80.147 432.896 79.5633 433.295 79.0876 433.792C78.612 434.289 78.255 434.872 78.0398 435.505C77.8246 436.137 77.7561 436.803 77.8386 437.461C77.921 438.119 78.1527 438.754 78.5186 439.324C80.0478 441.784 83.5739 443.003 86.4268 443.381Z" fill="#2F88FF"/>
<path d="M160.601 424.675C160.67 424.675 161.982 420.02 162.028 419.715C162.564 416.195 161.343 409.101 157.463 407.367C156.807 407.096 156.097 406.954 155.378 406.952C154.659 406.95 153.948 407.087 153.29 407.354C152.632 407.622 152.043 408.014 151.561 408.505C151.079 408.996 150.714 409.575 150.491 410.205C149.452 412.853 150.776 416.089 152.339 418.328C154.177 420.997 160.601 424.665 160.601 424.675Z" fill="#2F88FF"/>
<path d="M575.148 514.526H591.124" stroke="#263238" stroke-linecap="round" stroke-linejoin="round"/>
<path d="M278.448 514.526H559.172" stroke="#263238" stroke-linecap="round" stroke-linejoin="round"/>
<path d="M94.7227 514.526H267.037" stroke="#263238" stroke-linecap="round" stroke-linejoin="round"/>
<path opacity="0.1" d="M196.422 116.694C196.422 124.964 180.138 142.262 180.138 142.262C180.138 142.262 163.865 124.964 163.865 116.694C163.977 112.787 165.742 109.074 168.782 106.347C171.823 103.621 175.899 102.095 180.144 102.095C184.388 102.095 188.464 103.621 191.505 106.347C194.545 109.074 196.31 112.787 196.422 116.694ZM352.452 402.312C350.315 402.311 348.198 402.698 346.223 403.45C344.248 404.203 342.453 405.307 340.942 406.699C339.431 408.09 338.232 409.743 337.415 411.562C336.598 413.38 336.178 415.33 336.179 417.298C336.179 425.568 352.452 442.866 352.452 442.866C352.452 442.866 368.725 425.568 368.725 417.298C368.725 413.324 367.01 409.512 363.959 406.702C360.907 403.891 356.768 402.312 352.452 402.312ZM488.42 59.3892C484.104 59.3892 479.965 60.9681 476.914 63.7784C473.862 66.5887 472.147 70.4004 472.147 74.3748C472.113 82.6137 488.42 99.9427 488.42 99.9427C488.42 99.9427 504.659 82.6137 504.659 74.3748C504.656 70.4067 502.945 66.6014 499.901 63.7926C496.858 60.9837 492.729 59.4003 488.42 59.3892ZM126.538 256.86C124.401 256.859 122.284 257.245 120.309 257.998C118.334 258.751 116.539 259.854 115.028 261.246C113.517 262.638 112.318 264.291 111.501 266.109C110.684 267.928 110.264 269.877 110.265 271.846C110.265 280.116 126.538 297.403 126.538 297.403C126.538 297.403 142.811 280.116 142.811 271.846C142.811 267.871 141.096 264.06 138.045 261.249C134.993 258.439 130.854 256.86 126.538 256.86ZM559.217 251.606C554.916 251.608 550.791 253.178 547.742 255.972C544.693 258.766 542.969 262.557 542.945 266.518C542.945 274.799 559.217 292.086 559.217 292.086C559.217 292.086 575.49 274.83 575.49 266.518C575.486 264.549 575.06 262.6 574.237 260.783C573.415 258.966 572.211 257.316 570.696 255.927C569.18 254.538 567.383 253.438 565.405 252.689C563.428 251.941 561.31 251.558 559.172 251.564L559.217 251.606ZM488.42 80.7221H481.573C481.271 80.7221 480.98 80.6114 480.766 80.4143C480.552 80.2172 480.432 79.9499 480.432 79.6712C480.432 79.3925 480.552 79.1252 480.766 78.9281C480.98 78.731 481.271 78.6203 481.573 78.6203H488.42C488.723 78.6203 489.013 78.731 489.227 78.9281C489.441 79.1252 489.561 79.3925 489.561 79.6712C489.561 79.9499 489.441 80.2172 489.227 80.4143C489.013 80.6114 488.723 80.7221 488.42 80.7221ZM418.502 422.584C418.502 422.305 418.382 422.038 418.168 421.841C417.954 421.644 417.663 421.533 417.361 421.533H403.667C403.364 421.533 403.074 421.644 402.86 421.841C402.646 422.038 402.526 422.305 402.526 422.584C402.526 422.863 402.646 423.13 402.86 423.327C403.074 423.524 403.364 423.635 403.667 423.635H417.361C417.663 423.635 417.954 423.524 418.168 423.327C418.382 423.13 418.502 422.863 418.502 422.584ZM391.228 422.584C391.228 422.305 391.108 422.038 390.894 421.841C390.68 421.644 390.39 421.533 390.087 421.533H376.462C376.159 421.533 375.869 421.644 375.655 421.841C375.441 422.038 375.321 422.305 375.321 422.584C375.321 422.863 375.441 423.13 375.655 423.327C375.869 423.524 376.159 423.635 376.462 423.635H390.087C390.39 423.635 390.68 423.524 390.894 423.327C391.108 423.13 391.228 422.863 391.228 422.584ZM431.1 423.54C435.965 423.065 440.452 420.905 443.653 417.498C443.851 417.287 443.95 417.013 443.929 416.735C443.907 416.457 443.767 416.199 443.539 416.016C443.31 415.834 443.012 415.742 442.711 415.762C442.409 415.782 442.128 415.911 441.93 416.121C439.109 419.122 435.157 421.026 430.872 421.449C430.722 421.457 430.575 421.491 430.44 421.551C430.305 421.611 430.184 421.695 430.083 421.798C429.983 421.901 429.906 422.021 429.856 422.151C429.807 422.282 429.785 422.42 429.794 422.558C429.802 422.696 429.84 422.831 429.904 422.955C429.969 423.08 430.06 423.192 430.172 423.284C430.284 423.376 430.414 423.447 430.556 423.493C430.698 423.539 430.848 423.558 430.997 423.551L431.1 423.54ZM364.035 421.838C364.095 421.711 364.128 421.574 364.131 421.436C364.133 421.297 364.106 421.159 364.051 421.031C363.996 420.902 363.914 420.784 363.809 420.684C363.704 420.585 363.579 420.505 363.441 420.451C361.49 419.683 359.743 418.533 358.322 417.081C356.902 415.63 355.841 413.911 355.214 412.044C355.168 411.912 355.095 411.789 354.998 411.683C354.901 411.577 354.782 411.49 354.649 411.427C354.515 411.363 354.369 411.325 354.219 411.313C354.07 411.302 353.919 411.318 353.776 411.361C353.489 411.445 353.25 411.631 353.111 411.877C352.972 412.123 352.944 412.409 353.034 412.674C353.765 414.823 354.994 416.8 356.635 418.469C358.276 420.138 360.291 421.459 362.54 422.342C362.68 422.4 362.832 422.429 362.985 422.426C363.203 422.431 363.417 422.378 363.603 422.273C363.789 422.169 363.939 422.018 364.035 421.838ZM448.366 405.234V392.697C448.366 392.418 448.246 392.151 448.032 391.954C447.818 391.757 447.527 391.646 447.225 391.646C446.922 391.646 446.632 391.757 446.418 391.954C446.204 392.151 446.084 392.418 446.084 392.697V405.234C446.084 405.513 446.204 405.78 446.418 405.977C446.632 406.174 446.922 406.285 447.225 406.285C447.527 406.285 447.818 406.174 448.032 405.977C448.246 405.78 448.366 405.513 448.366 405.234ZM354.552 399.906V391.278C354.551 389.917 354.44 388.558 354.221 387.211C354.198 387.075 354.147 386.943 354.07 386.825C353.992 386.707 353.89 386.603 353.769 386.521C353.648 386.439 353.511 386.38 353.365 386.347C353.22 386.314 353.068 386.308 352.92 386.329C352.771 386.349 352.629 386.396 352.5 386.468C352.372 386.539 352.26 386.633 352.171 386.744C352.082 386.856 352.017 386.982 351.981 387.116C351.945 387.25 351.939 387.39 351.961 387.527C352.167 388.768 352.27 390.022 352.269 391.278V399.906C352.269 400.185 352.39 400.452 352.604 400.649C352.818 400.846 353.108 400.957 353.411 400.957C353.713 400.957 354.003 400.846 354.217 400.649C354.431 400.452 354.552 400.185 354.552 399.906ZM448.366 380.128V367.581C448.366 367.302 448.246 367.035 448.032 366.838C447.818 366.641 447.527 366.53 447.225 366.53C446.922 366.53 446.632 366.641 446.418 366.838C446.204 367.035 446.084 367.302 446.084 367.581V380.139C446.084 380.418 446.204 380.685 446.418 380.882C446.632 381.079 446.922 381.19 447.225 381.19C447.527 381.19 447.818 381.079 448.032 380.882C448.246 380.685 448.366 380.418 448.366 380.139V380.128ZM348.606 376.734C348.727 376.652 348.829 376.549 348.906 376.43C348.984 376.312 349.035 376.181 349.057 376.044C349.08 375.908 349.072 375.768 349.036 375.634C349 375.5 348.935 375.374 348.846 375.263C346.029 371.743 342.335 368.899 338.073 366.971C337.938 366.898 337.788 366.852 337.632 366.834C337.476 366.817 337.318 366.83 337.168 366.871C337.018 366.913 336.878 366.983 336.759 367.076C336.639 367.169 336.541 367.285 336.472 367.414C336.403 367.544 336.363 367.685 336.356 367.83C336.349 367.974 336.374 368.118 336.43 368.253C336.486 368.388 336.572 368.511 336.682 368.614C336.792 368.717 336.924 368.798 337.069 368.852C341.003 370.633 344.412 373.261 347.009 376.513C347.098 376.625 347.21 376.719 347.338 376.79C347.467 376.861 347.609 376.908 347.758 376.929C347.906 376.949 348.057 376.943 348.203 376.909C348.349 376.876 348.486 376.816 348.606 376.734ZM325.521 365.3C325.521 365.022 325.401 364.754 325.187 364.557C324.973 364.36 324.682 364.25 324.38 364.25H310.754C310.452 364.25 310.161 364.36 309.947 364.557C309.733 364.754 309.613 365.022 309.613 365.3C309.613 365.579 309.733 365.846 309.947 366.044C310.161 366.241 310.452 366.351 310.754 366.351H324.38C324.682 366.351 324.973 366.241 325.187 366.044C325.401 365.846 325.521 365.579 325.521 365.3ZM298.259 365.3C298.259 365.022 298.138 364.754 297.924 364.557C297.71 364.36 297.42 364.25 297.117 364.25H283.424C283.121 364.25 282.831 364.36 282.617 364.557C282.403 364.754 282.282 365.022 282.282 365.3C282.282 365.579 282.403 365.846 282.617 366.044C282.831 366.241 283.121 366.351 283.424 366.351H297.117C297.42 366.351 297.71 366.241 297.924 366.044C298.138 365.846 298.259 365.579 298.259 365.3ZM270.996 365.3C270.996 365.022 270.876 364.754 270.662 364.557C270.448 364.36 270.158 364.25 269.855 364.25H256.219C255.916 364.25 255.626 364.36 255.412 364.557C255.198 364.754 255.077 365.022 255.077 365.3C255.077 365.579 255.198 365.846 255.412 366.044C255.626 366.241 255.916 366.351 256.219 366.351H269.855C270.158 366.351 270.448 366.241 270.662 366.044C270.876 365.846 270.996 365.579 270.996 365.3ZM243.734 365.3C243.734 365.022 243.614 364.754 243.4 364.557C243.186 364.36 242.896 364.25 242.593 364.25H228.899C228.597 364.25 228.306 364.36 228.092 364.557C227.878 364.754 227.758 365.022 227.758 365.3C227.758 365.579 227.878 365.846 228.092 366.044C228.306 366.241 228.597 366.351 228.899 366.351H242.593C242.896 366.351 243.186 366.241 243.4 366.044C243.614 365.846 243.734 365.579 243.734 365.3ZM216.461 365.3C216.461 365.022 216.341 364.754 216.127 364.557C215.913 364.36 215.622 364.25 215.32 364.25H201.694C201.392 364.25 201.101 364.36 200.887 364.557C200.673 364.754 200.553 365.022 200.553 365.3C200.553 365.579 200.673 365.846 200.887 366.044C201.101 366.241 201.392 366.351 201.694 366.351H215.32C215.622 366.351 215.913 366.241 216.127 366.044C216.341 365.846 216.461 365.579 216.461 365.3ZM189.199 365.3C189.199 365.022 189.078 364.754 188.864 364.557C188.65 364.36 188.36 364.25 188.058 364.25H174.432C174.13 364.25 173.839 364.36 173.625 364.557C173.411 364.754 173.291 365.022 173.291 365.3C173.291 365.579 173.411 365.846 173.625 366.044C173.839 366.241 174.13 366.351 174.432 366.351H188.058C188.36 366.351 188.65 366.241 188.864 366.044C189.078 365.846 189.199 365.579 189.199 365.3ZM161.937 365.3C161.937 365.022 161.816 364.754 161.602 364.557C161.388 364.36 161.098 364.25 160.795 364.25H147.216C146.913 364.25 146.623 364.36 146.409 364.557C146.195 364.754 146.075 365.022 146.075 365.3C146.075 365.579 146.195 365.846 146.409 366.044C146.623 366.241 146.913 366.351 147.216 366.351H160.909C161.192 366.325 161.454 366.203 161.644 366.009C161.834 365.814 161.938 365.562 161.937 365.3ZM134.914 363.619C135.049 363.371 135.073 363.083 134.978 362.82C134.884 362.556 134.681 362.337 134.412 362.211C130.526 360.413 127.338 357.554 125.283 354.025C125.138 353.785 124.897 353.606 124.611 353.528C124.326 353.449 124.018 353.477 123.754 353.605C123.491 353.732 123.292 353.95 123.2 354.211C123.108 354.472 123.13 354.756 123.263 355.002C125.53 358.916 129.052 362.09 133.351 364.092C133.511 364.163 133.686 364.199 133.864 364.197C134.082 364.201 134.296 364.148 134.482 364.044C134.669 363.94 134.818 363.789 134.914 363.609V363.619ZM122.886 342.339V329.781C122.886 329.502 122.766 329.235 122.552 329.038C122.338 328.841 122.048 328.73 121.745 328.73C121.442 328.73 121.152 328.841 120.938 329.038C120.724 329.235 120.604 329.502 120.604 329.781V342.339C120.604 342.617 120.724 342.885 120.938 343.082C121.152 343.279 121.442 343.39 121.745 343.39C122.048 343.39 122.338 343.279 122.552 343.082C122.766 342.885 122.886 342.617 122.886 342.339ZM122.886 317.233V304.675C122.886 304.396 122.766 304.129 122.552 303.932C122.338 303.735 122.048 303.624 121.745 303.624C121.442 303.624 121.152 303.735 120.938 303.932C120.724 304.129 120.604 304.396 120.604 304.675V317.233C120.604 317.512 120.724 317.779 120.938 317.976C121.152 318.173 121.442 318.284 121.745 318.284C122.048 318.284 122.338 318.173 122.552 317.976C122.766 317.779 122.886 317.512 122.886 317.233ZM122.886 292.117V286.863C122.874 284.618 123.593 282.421 124.952 280.557C125.12 280.325 125.18 280.04 125.121 279.766C125.061 279.492 124.885 279.251 124.632 279.097C124.38 278.942 124.07 278.886 123.773 278.941C123.476 278.997 123.214 279.158 123.046 279.391C121.449 281.589 120.599 284.176 120.604 286.821V292.075C120.604 292.354 120.724 292.621 120.938 292.818C121.152 293.015 121.442 293.126 121.745 293.126C122.048 293.126 122.338 293.015 122.552 292.818C122.766 292.621 122.886 292.354 122.886 292.075V292.117ZM585.738 274.662C585.88 274.618 586.012 274.549 586.125 274.458C586.239 274.367 586.332 274.256 586.398 274.132C586.465 274.008 586.505 273.873 586.515 273.735C586.525 273.597 586.505 273.458 586.457 273.327C586.36 273.065 586.155 272.848 585.886 272.724C585.617 272.6 585.305 272.579 585.019 272.665C583.337 273.178 581.576 273.437 579.804 273.433H571.816C571.513 273.433 571.223 273.543 571.009 273.74C570.795 273.937 570.675 274.205 570.675 274.483C570.675 274.762 570.795 275.029 571.009 275.226C571.223 275.424 571.513 275.534 571.816 275.534H579.804C581.819 275.535 583.822 275.24 585.738 274.662ZM559.343 274.483C559.343 274.205 559.223 273.937 559.009 273.74C558.795 273.543 558.504 273.433 558.202 273.433H544.576C544.274 273.433 543.984 273.543 543.77 273.74C543.556 273.937 543.435 274.205 543.435 274.483C543.435 274.762 543.556 275.029 543.77 275.226C543.984 275.424 544.274 275.534 544.576 275.534H558.202C558.504 275.534 558.795 275.424 559.009 275.226C559.223 275.029 559.343 274.762 559.343 274.483ZM532.081 274.483C532.081 274.205 531.961 273.937 531.747 273.74C531.533 273.543 531.242 273.433 530.94 273.433H517.314C517.012 273.433 516.721 273.543 516.507 273.74C516.293 273.937 516.173 274.205 516.173 274.483C516.173 274.762 516.293 275.029 516.507 275.226C516.721 275.424 517.012 275.534 517.314 275.534H530.94C531.242 275.534 531.533 275.424 531.747 275.226C531.961 275.029 532.081 274.762 532.081 274.483ZM504.819 274.483C504.819 274.205 504.698 273.937 504.484 273.74C504.27 273.543 503.98 273.433 503.677 273.433H490.041C489.738 273.433 489.448 273.543 489.234 273.74C489.02 273.937 488.9 274.205 488.9 274.483C488.9 274.762 489.02 275.029 489.234 275.226C489.448 275.424 489.738 275.534 490.041 275.534H503.677C503.98 275.534 504.27 275.424 504.484 275.226C504.698 275.029 504.819 274.762 504.819 274.483ZM477.557 274.483C477.557 274.205 477.436 273.937 477.222 273.74C477.008 273.543 476.718 273.433 476.415 273.433H462.722C462.419 273.433 462.129 273.543 461.915 273.74C461.701 273.937 461.58 274.205 461.58 274.483C461.58 274.762 461.701 275.029 461.915 275.226C462.129 275.424 462.419 275.534 462.722 275.534H476.415C476.718 275.534 477.008 275.424 477.222 275.226C477.436 275.029 477.557 274.762 477.557 274.483ZM450.294 274.483C450.294 274.205 450.174 273.937 449.96 273.74C449.746 273.543 449.456 273.433 449.153 273.433H435.516C435.214 273.433 434.924 273.543 434.71 273.74C434.496 273.937 434.375 274.205 434.375 274.483C434.375 274.762 434.496 275.029 434.71 275.226C434.924 275.424 435.214 275.534 435.516 275.534H449.153C449.456 275.534 449.746 275.424 449.96 275.226C450.174 275.029 450.294 274.762 450.294 274.483ZM423.021 274.483C423.021 274.205 422.901 273.937 422.687 273.74C422.473 273.543 422.182 273.433 421.88 273.433H408.254C407.952 273.433 407.661 273.543 407.447 273.74C407.233 273.937 407.113 274.205 407.113 274.483C407.113 274.762 407.233 275.029 407.447 275.226C407.661 275.424 407.952 275.534 408.254 275.534H421.88C422.182 275.534 422.473 275.424 422.687 275.226C422.901 275.029 423.021 274.762 423.021 274.483ZM395.759 274.483C395.759 274.205 395.638 273.937 395.424 273.74C395.21 273.543 394.92 273.433 394.618 273.433H380.992C380.69 273.433 380.399 273.543 380.185 273.74C379.971 273.937 379.851 274.205 379.851 274.483C379.851 274.762 379.971 275.029 380.185 275.226C380.399 275.424 380.69 275.534 380.992 275.534H394.618C394.92 275.534 395.21 275.424 395.424 275.226C395.638 275.029 395.759 274.762 395.759 274.483ZM368.497 274.483C368.497 274.205 368.376 273.937 368.162 273.74C367.948 273.543 367.658 273.433 367.355 273.433H353.764C353.462 273.433 353.171 273.543 352.957 273.74C352.743 273.937 352.623 274.205 352.623 274.483C352.623 274.762 352.743 275.029 352.957 275.226C353.171 275.424 353.462 275.534 353.764 275.534H367.458C367.743 275.511 368.007 275.389 368.199 275.195C368.392 275 368.498 274.746 368.497 274.483ZM341.234 274.483C341.234 274.205 341.114 273.937 340.9 273.74C340.686 273.543 340.396 273.433 340.093 273.433H326.399C326.097 273.433 325.807 273.543 325.593 273.74C325.379 273.937 325.258 274.205 325.258 274.483C325.258 274.762 325.379 275.029 325.593 275.226C325.807 275.424 326.097 275.534 326.399 275.534H340.093C340.392 275.529 340.676 275.416 340.885 275.219C341.095 275.023 341.212 274.758 341.212 274.483H341.234ZM313.972 274.483C313.972 274.205 313.852 273.937 313.638 273.74C313.424 273.543 313.134 273.433 312.831 273.433H299.194C298.892 273.433 298.601 273.543 298.387 273.74C298.173 273.937 298.053 274.205 298.053 274.483C298.053 274.762 298.173 275.029 298.387 275.226C298.601 275.424 298.892 275.534 299.194 275.534H312.831C313.134 275.534 313.424 275.424 313.638 275.226C313.852 275.029 313.972 274.762 313.972 274.483ZM286.699 274.483C286.699 274.205 286.579 273.937 286.365 273.74C286.15 273.543 285.86 273.433 285.558 273.433H271.932C271.63 273.433 271.339 273.543 271.125 273.74C270.911 273.937 270.791 274.205 270.791 274.483C270.791 274.762 270.911 275.029 271.125 275.226C271.339 275.424 271.63 275.534 271.932 275.534H285.558C285.86 275.534 286.15 275.424 286.365 275.226C286.579 275.029 286.699 274.762 286.699 274.483ZM259.437 274.483C259.437 274.205 259.316 273.937 259.102 273.74C258.888 273.543 258.598 273.433 258.295 273.433H244.67C244.367 273.433 244.077 273.543 243.863 273.74C243.649 273.937 243.529 274.205 243.529 274.483C243.529 274.762 243.649 275.029 243.863 275.226C244.077 275.424 244.367 275.534 244.67 275.534H258.295C258.598 275.534 258.888 275.424 259.102 275.226C259.316 275.029 259.437 274.762 259.437 274.483ZM232.174 274.483C232.174 274.205 232.054 273.937 231.84 273.74C231.626 273.543 231.336 273.433 231.033 273.433H217.397C217.094 273.433 216.804 273.543 216.59 273.74C216.376 273.937 216.255 274.205 216.255 274.483C216.255 274.762 216.376 275.029 216.59 275.226C216.804 275.424 217.094 275.534 217.397 275.534H231.033C231.336 275.534 231.626 275.424 231.84 275.226C232.054 275.029 232.174 274.762 232.174 274.483ZM204.912 274.483C204.912 274.205 204.792 273.937 204.578 273.74C204.364 273.543 204.074 273.433 203.771 273.433H190.077C189.775 273.433 189.484 273.543 189.27 273.74C189.056 273.937 188.936 274.205 188.936 274.483C188.936 274.762 189.056 275.029 189.27 275.226C189.484 275.424 189.775 275.534 190.077 275.534H203.771C204.074 275.534 204.364 275.424 204.578 275.226C204.792 275.029 204.912 274.762 204.912 274.483ZM177.65 274.483C177.65 274.205 177.53 273.937 177.316 273.74C177.102 273.543 176.812 273.433 176.509 273.433H162.815C162.513 273.433 162.222 273.543 162.008 273.74C161.794 273.937 161.674 274.205 161.674 274.483C161.674 274.762 161.794 275.029 162.008 275.226C162.222 275.424 162.513 275.534 162.815 275.534H176.509C176.812 275.534 177.102 275.424 177.316 275.226C177.53 275.029 177.65 274.762 177.65 274.483ZM150.377 274.483C150.377 274.205 150.256 273.937 150.042 273.74C149.828 273.543 149.538 273.433 149.236 273.433H135.61C135.307 273.433 135.017 273.543 134.803 273.74C134.589 273.937 134.469 274.205 134.469 274.483C134.469 274.762 134.589 275.029 134.803 275.226C135.017 275.424 135.307 275.534 135.61 275.534H149.236C149.538 275.534 149.828 275.424 150.042 275.226C150.256 275.029 150.377 274.762 150.377 274.483ZM596.567 266.213C597.977 263.732 598.713 260.974 598.713 258.174V253.476C598.713 253.198 598.592 252.93 598.378 252.733C598.164 252.536 597.874 252.425 597.572 252.425C597.269 252.425 596.979 252.536 596.765 252.733C596.551 252.93 596.43 253.198 596.43 253.476V258.174C596.431 260.633 595.785 263.056 594.547 265.236C594.474 265.358 594.427 265.493 594.411 265.632C594.394 265.771 594.408 265.912 594.451 266.047C594.495 266.181 594.567 266.306 594.664 266.414C594.76 266.522 594.88 266.611 595.014 266.676C595.149 266.742 595.296 266.781 595.448 266.793C595.599 266.805 595.752 266.789 595.897 266.746C596.041 266.703 596.175 266.633 596.29 266.542C596.406 266.45 596.5 266.338 596.567 266.213ZM598.713 240.918V228.371C598.713 228.092 598.592 227.825 598.378 227.628C598.164 227.431 597.874 227.32 597.572 227.32C597.269 227.32 596.979 227.431 596.765 227.628C596.551 227.825 596.43 228.092 596.43 228.371V240.918C596.43 241.197 596.551 241.464 596.765 241.661C596.979 241.858 597.269 241.969 597.572 241.969C597.874 241.969 598.164 241.858 598.378 241.661C598.592 241.464 598.713 241.197 598.713 240.918ZM598.713 215.813V211.462C598.733 208.527 597.948 205.636 596.43 203.055C596.358 202.934 596.26 202.828 596.143 202.742C596.025 202.656 595.891 202.592 595.747 202.554C595.603 202.516 595.452 202.504 595.303 202.52C595.154 202.536 595.01 202.578 594.878 202.645C594.617 202.78 594.423 203.005 594.34 203.27C594.256 203.536 594.29 203.821 594.433 204.064C595.774 206.319 596.476 208.849 596.476 211.42V215.771C596.476 216.049 596.596 216.317 596.81 216.514C597.024 216.711 597.315 216.822 597.617 216.822C597.92 216.822 598.21 216.711 598.424 216.514C598.638 216.317 598.758 216.049 598.758 215.771L598.713 215.813ZM586.16 196.172C586.249 195.906 586.22 195.618 586.079 195.371C585.937 195.125 585.696 194.941 585.407 194.858C583.609 194.354 581.74 194.099 579.861 194.102H571.519C571.216 194.102 570.926 194.212 570.712 194.409C570.498 194.606 570.378 194.874 570.378 195.152C570.378 195.431 570.498 195.698 570.712 195.896C570.926 196.093 571.216 196.203 571.519 196.203H579.861C581.513 196.199 583.156 196.426 584.734 196.876C584.847 196.892 584.962 196.892 585.076 196.876C585.304 196.867 585.524 196.794 585.707 196.669C585.89 196.543 586.028 196.37 586.103 196.172H586.16ZM559.035 195.121C559.035 194.842 558.915 194.575 558.701 194.378C558.487 194.181 558.196 194.07 557.894 194.07H544.2C543.897 194.07 543.607 194.181 543.393 194.378C543.179 194.575 543.059 194.842 543.059 195.121C543.059 195.4 543.179 195.667 543.393 195.864C543.607 196.061 543.897 196.172 544.2 196.172H557.837C558.133 196.172 558.419 196.066 558.632 195.875C558.845 195.685 558.969 195.426 558.978 195.152L559.035 195.121ZM531.761 195.121C531.761 194.842 531.641 194.575 531.427 194.378C531.213 194.181 530.923 194.07 530.62 194.07H516.949C516.646 194.07 516.356 194.181 516.142 194.378C515.928 194.575 515.808 194.842 515.808 195.121C515.808 195.4 515.928 195.667 516.142 195.864C516.356 196.061 516.646 196.172 516.949 196.172H530.574C530.869 196.169 531.152 196.062 531.362 195.872C531.573 195.682 531.695 195.424 531.704 195.152L531.761 195.121ZM504.499 195.121C504.499 194.842 504.379 194.575 504.165 194.378C503.951 194.181 503.661 194.07 503.358 194.07H489.676C489.373 194.07 489.083 194.181 488.869 194.378C488.655 194.575 488.534 194.842 488.534 195.121C488.534 195.4 488.655 195.667 488.869 195.864C489.083 196.061 489.373 196.172 489.676 196.172H503.255C503.552 196.172 503.837 196.066 504.05 195.875C504.263 195.685 504.388 195.426 504.396 195.152L504.499 195.121ZM477.237 195.121C477.237 194.842 477.117 194.575 476.903 194.378C476.689 194.181 476.399 194.07 476.096 194.07H462.402C462.099 194.07 461.809 194.181 461.595 194.378C461.381 194.575 461.261 194.842 461.261 195.121C461.261 195.4 461.381 195.667 461.595 195.864C461.809 196.061 462.099 196.172 462.402 196.172H476.039C476.336 196.172 476.621 196.066 476.834 195.875C477.047 195.685 477.171 195.426 477.18 195.152L477.237 195.121ZM449.975 195.121C449.975 194.842 449.855 194.575 449.641 194.378C449.427 194.181 449.136 194.07 448.834 194.07H435.14C434.837 194.07 434.547 194.181 434.333 194.378C434.119 194.575 433.999 194.842 433.999 195.121C433.999 195.4 434.119 195.667 434.333 195.864C434.547 196.061 434.837 196.172 435.14 196.172H448.777C449.073 196.172 449.359 196.066 449.572 195.875C449.785 195.685 449.909 195.426 449.918 195.152L449.975 195.121ZM422.713 195.121C422.713 194.842 422.592 194.575 422.378 194.378C422.164 194.181 421.874 194.07 421.572 194.07H407.878C407.575 194.07 407.285 194.181 407.071 194.378C406.857 194.575 406.737 194.842 406.737 195.121C406.737 195.4 406.857 195.667 407.071 195.864C407.285 196.061 407.575 196.172 407.878 196.172H421.515C421.811 196.172 422.097 196.066 422.31 195.875C422.523 195.685 422.647 195.426 422.656 195.152L422.713 195.121ZM395.439 195.121C395.439 194.842 395.319 194.575 395.105 194.378C394.891 194.181 394.601 194.07 394.298 194.07H380.616C380.313 194.07 380.023 194.181 379.809 194.378C379.595 194.575 379.474 194.842 379.474 195.121C379.474 195.4 379.595 195.667 379.809 195.864C380.023 196.061 380.313 196.172 380.616 196.172H394.241C394.538 196.172 394.823 196.066 395.036 195.875C395.249 195.685 395.373 195.426 395.382 195.152L395.439 195.121ZM368.177 195.121C368.177 194.842 368.057 194.575 367.843 194.378C367.629 194.181 367.339 194.07 367.036 194.07H353.353C353.051 194.07 352.761 194.181 352.547 194.378C352.333 194.575 352.212 194.842 352.212 195.121C352.212 195.4 352.333 195.667 352.547 195.864C352.761 196.061 353.051 196.172 353.353 196.172H366.979C367.276 196.172 367.561 196.066 367.774 195.875C367.987 195.685 368.111 195.426 368.12 195.152L368.177 195.121ZM340.915 195.121C340.915 194.842 340.795 194.575 340.581 194.378C340.367 194.181 340.076 194.07 339.774 194.07H326.08C325.777 194.07 325.487 194.181 325.273 194.378C325.059 194.575 324.939 194.842 324.939 195.121C324.939 195.4 325.059 195.667 325.273 195.864C325.487 196.061 325.777 196.172 326.08 196.172H339.717C340.014 196.172 340.299 196.066 340.512 195.875C340.725 195.685 340.849 195.426 340.858 195.152L340.915 195.121ZM313.653 195.121C313.653 194.842 313.533 194.575 313.319 194.378C313.105 194.181 312.814 194.07 312.512 194.07H298.818C298.515 194.07 298.225 194.181 298.011 194.378C297.797 194.575 297.677 194.842 297.677 195.121C297.677 195.4 297.797 195.667 298.011 195.864C298.225 196.061 298.515 196.172 298.818 196.172H312.512C312.798 196.159 313.069 196.046 313.27 195.858C313.471 195.669 313.587 195.417 313.596 195.152L313.653 195.121ZM286.391 195.121C286.391 194.842 286.27 194.575 286.056 194.378C285.842 194.181 285.552 194.07 285.249 194.07H271.601C271.299 194.07 271.008 194.181 270.794 194.378C270.58 194.575 270.46 194.842 270.46 195.121C270.46 195.4 270.58 195.667 270.794 195.864C271.008 196.061 271.299 196.172 271.601 196.172H285.238C285.527 196.161 285.801 196.05 286.004 195.861C286.207 195.672 286.325 195.419 286.334 195.152L286.391 195.121ZM259.117 195.121C259.117 194.842 258.997 194.575 258.783 194.378C258.569 194.181 258.279 194.07 257.976 194.07H244.294C243.991 194.07 243.701 194.181 243.487 194.378C243.273 194.575 243.152 194.842 243.152 195.121C243.152 195.4 243.273 195.667 243.487 195.864C243.701 196.061 243.991 196.172 244.294 196.172H257.907C258.204 196.172 258.489 196.066 258.703 195.875C258.916 195.685 259.04 195.426 259.049 195.152L259.117 195.121ZM231.855 195.121C231.855 194.842 231.735 194.575 231.521 194.378C231.307 194.181 231.016 194.07 230.714 194.07H217.031C216.729 194.07 216.438 194.181 216.224 194.378C216.01 194.575 215.89 194.842 215.89 195.121C215.89 195.4 216.01 195.667 216.224 195.864C216.438 196.061 216.729 196.172 217.031 196.172H230.657C230.954 196.172 231.239 196.066 231.452 195.875C231.665 195.685 231.789 195.426 231.798 195.152L231.855 195.121ZM204.593 195.121C204.593 194.842 204.473 194.575 204.259 194.378C204.045 194.181 203.754 194.07 203.452 194.07H189.758C189.455 194.07 189.165 194.181 188.951 194.378C188.737 194.575 188.617 194.842 188.617 195.121C188.617 195.4 188.737 195.667 188.951 195.864C189.165 196.061 189.455 196.172 189.758 196.172H203.395C203.691 196.172 203.977 196.066 204.19 195.875C204.403 195.685 204.527 195.426 204.536 195.152L204.593 195.121ZM178.118 191.968C178.225 191.871 178.31 191.754 178.368 191.626C178.426 191.498 178.456 191.361 178.456 191.222C178.456 191.083 178.426 190.946 178.368 190.818C178.31 190.69 178.225 190.574 178.118 190.476C176.722 189.26 175.612 187.793 174.857 186.167C174.101 184.54 173.716 182.787 173.725 181.018V179.883C173.725 179.604 173.604 179.337 173.39 179.14C173.176 178.943 172.886 178.832 172.583 178.832C172.281 178.832 171.991 178.943 171.777 179.14C171.563 179.337 171.442 179.604 171.442 179.883V181.018C171.434 183.071 171.882 185.103 172.759 186.99C173.637 188.877 174.924 190.578 176.543 191.989C176.755 192.177 177.037 192.282 177.331 192.284C177.594 192.259 177.84 192.152 178.027 191.979L178.118 191.968ZM173.679 167.346V154.799C173.679 154.52 173.559 154.253 173.345 154.056C173.131 153.858 172.84 153.748 172.538 153.748C172.235 153.748 171.945 153.858 171.731 154.056C171.517 154.253 171.397 154.52 171.397 154.799V167.357C171.397 167.635 171.517 167.903 171.731 168.1C171.945 168.297 172.235 168.408 172.538 168.408C172.84 168.408 173.131 168.297 173.345 168.1C173.559 167.903 173.679 167.635 173.679 167.357V167.346ZM173.679 142.23V139.603C173.674 136.481 174.683 133.428 176.578 130.839C176.661 130.719 176.718 130.586 176.745 130.446C176.772 130.307 176.769 130.164 176.736 130.025C176.703 129.886 176.641 129.755 176.553 129.639C176.465 129.522 176.353 129.423 176.224 129.346C176.094 129.27 175.949 129.217 175.798 129.192C175.646 129.167 175.491 129.17 175.34 129.2C175.19 129.23 175.047 129.288 174.921 129.369C174.794 129.45 174.687 129.553 174.603 129.672C172.448 132.607 171.299 136.07 171.305 139.613V142.241C171.305 142.519 171.426 142.787 171.64 142.984C171.854 143.181 172.144 143.291 172.447 143.291C172.749 143.291 173.039 143.181 173.253 142.984C173.467 142.787 173.588 142.519 173.588 142.241L173.679 142.23ZM186.848 124.365C188.12 124.092 189.422 123.954 190.728 123.955H200.188C200.491 123.955 200.781 123.845 200.995 123.647C201.209 123.45 201.329 123.183 201.329 122.904C201.329 122.626 201.209 122.358 200.995 122.161C200.781 121.964 200.491 121.854 200.188 121.854H190.728C189.249 121.854 187.775 122.01 186.334 122.316C186.188 122.347 186.05 122.404 185.928 122.484C185.806 122.564 185.702 122.666 185.623 122.783C185.543 122.9 185.489 123.031 185.465 123.167C185.44 123.303 185.445 123.442 185.479 123.577C185.539 123.812 185.685 124.021 185.893 124.168C186.101 124.316 186.357 124.393 186.62 124.386C186.679 124.37 186.736 124.349 186.791 124.323L186.848 124.365ZM213.996 123.703C216.388 123.314 218.672 122.493 220.719 121.289C222.765 120.084 224.533 118.519 225.921 116.683C226.093 116.455 226.16 116.172 226.106 115.899C226.053 115.625 225.884 115.382 225.636 115.222C225.387 115.064 225.081 115.003 224.784 115.052C224.486 115.101 224.222 115.257 224.049 115.485C221.592 118.728 217.836 120.94 213.608 121.633C213.305 121.657 213.025 121.79 212.829 122.004C212.634 122.218 212.538 122.494 212.564 122.773C212.589 123.052 212.734 123.31 212.967 123.49C213.199 123.67 213.499 123.758 213.802 123.735L213.996 123.703ZM229.15 104.073V95.5395C229.151 94.2851 229.319 93.0356 229.653 91.8194C229.706 91.6816 229.727 91.535 229.716 91.3891C229.704 91.2433 229.659 91.1012 229.585 90.9721C229.51 90.8431 229.407 90.7298 229.282 90.6395C229.156 90.5493 229.012 90.4841 228.858 90.4481C228.704 90.4121 228.544 90.4061 228.387 90.4305C228.231 90.4549 228.081 90.5091 227.949 90.5897C227.816 90.6703 227.703 90.7755 227.618 90.8986C227.532 91.0217 227.475 91.1599 227.45 91.3045C227.064 92.6774 226.869 94.0898 226.868 95.508V104.041C226.868 104.32 226.988 104.587 227.202 104.784C227.416 104.981 227.707 105.092 228.009 105.092C228.312 105.092 228.602 104.981 228.816 104.784C229.03 104.587 229.15 104.32 229.15 104.041V104.073ZM237.138 82.7293C239.595 81.4121 242.387 80.7194 245.229 80.7221H249.794C250.097 80.7221 250.387 80.6114 250.601 80.4143C250.815 80.2172 250.935 79.9499 250.935 79.6712C250.935 79.3925 250.815 79.1252 250.601 78.9281C250.387 78.731 250.097 78.6203 249.794 78.6203H245.229C241.982 78.6169 238.792 79.4075 235.986 80.9112C235.856 80.9808 235.742 81.0732 235.652 81.1833C235.561 81.2933 235.494 81.4188 235.456 81.5526C235.418 81.6863 235.409 81.8257 235.429 81.9627C235.45 82.0997 235.499 82.2316 235.575 82.351C235.651 82.4705 235.751 82.5751 235.871 82.6589C235.99 82.7426 236.126 82.8038 236.272 82.839C236.417 82.8741 236.568 82.8825 236.717 82.8637C236.866 82.8449 237.009 82.7992 237.138 82.7293ZM469.021 79.6712C469.021 79.3925 468.9 79.1252 468.686 78.9281C468.472 78.731 468.182 78.6203 467.88 78.6203H454.266C453.963 78.6203 453.673 78.731 453.459 78.9281C453.245 79.1252 453.124 79.3925 453.124 79.6712C453.124 79.9499 453.245 80.2172 453.459 80.4143C453.673 80.6114 453.963 80.7221 454.266 80.7221H467.88C468.182 80.7221 468.472 80.6114 468.686 80.4143C468.9 80.2172 469.021 79.9499 469.021 79.6712ZM441.759 79.6712C441.759 79.3925 441.638 79.1252 441.424 78.9281C441.21 78.731 440.92 78.6203 440.617 78.6203H427.003C426.701 78.6203 426.411 78.731 426.197 78.9281C425.983 79.1252 425.862 79.3925 425.862 79.6712C425.862 79.9499 425.983 80.2172 426.197 80.4143C426.411 80.6114 426.701 80.7221 427.003 80.7221H440.64C440.943 80.7221 441.233 80.6114 441.447 80.4143C441.661 80.2172 441.781 79.9499 441.781 79.6712H441.759ZM414.496 79.6712C414.496 79.3925 414.376 79.1252 414.162 78.9281C413.948 78.731 413.658 78.6203 413.355 78.6203H399.741C399.439 78.6203 399.148 78.731 398.934 78.9281C398.72 79.1252 398.6 79.3925 398.6 79.6712C398.6 79.9499 398.72 80.2172 398.934 80.4143C399.148 80.6114 399.439 80.7221 399.741 80.7221H413.378C413.681 80.7221 413.971 80.6114 414.185 80.4143C414.399 80.2172 414.519 79.9499 414.519 79.6712H414.496ZM387.223 79.6712C387.223 79.3925 387.103 79.1252 386.889 78.9281C386.675 78.731 386.384 78.6203 386.082 78.6203H372.479C372.177 78.6203 371.886 78.731 371.672 78.9281C371.458 79.1252 371.338 79.3925 371.338 79.6712C371.338 79.9499 371.458 80.2172 371.672 80.4143C371.886 80.6114 372.177 80.7221 372.479 80.7221H386.105C386.407 80.7221 386.697 80.6114 386.911 80.4143C387.125 80.2172 387.246 79.9499 387.246 79.6712H387.223ZM359.961 79.6712C359.961 79.3925 359.841 79.1252 359.627 78.9281C359.413 78.731 359.122 78.6203 358.82 78.6203H345.217C344.914 78.6203 344.624 78.731 344.41 78.9281C344.196 79.1252 344.076 79.3925 344.076 79.6712C344.076 79.9499 344.196 80.2172 344.41 80.4143C344.624 80.6114 344.914 80.7221 345.217 80.7221H358.842C359.145 80.7221 359.435 80.6114 359.649 80.4143C359.863 80.2172 359.984 79.9499 359.984 79.6712H359.961ZM332.699 79.6712C332.699 79.3925 332.578 79.1252 332.364 78.9281C332.15 78.731 331.86 78.6203 331.557 78.6203H317.944C317.641 78.6203 317.351 78.731 317.137 78.9281C316.923 79.1252 316.802 79.3925 316.802 79.6712C316.802 79.9499 316.923 80.2172 317.137 80.4143C317.351 80.6114 317.641 80.7221 317.944 80.7221H331.58C331.883 80.7221 332.173 80.6114 332.387 80.4143C332.601 80.2172 332.721 79.9499 332.721 79.6712H332.699ZM305.436 79.6712C305.436 79.3925 305.316 79.1252 305.102 78.9281C304.888 78.731 304.598 78.6203 304.295 78.6203H290.681C290.379 78.6203 290.088 78.731 289.874 78.9281C289.66 79.1252 289.54 79.3925 289.54 79.6712C289.54 79.9499 289.66 80.2172 289.874 80.4143C290.088 80.6114 290.379 80.7221 290.681 80.7221H304.318C304.621 80.7221 304.911 80.6114 305.125 80.4143C305.339 80.2172 305.459 79.9499 305.459 79.6712H305.436ZM278.174 79.6712C278.174 79.3925 278.054 79.1252 277.84 78.9281C277.626 78.731 277.336 78.6203 277.033 78.6203H263.419C263.117 78.6203 262.826 78.731 262.612 78.9281C262.398 79.1252 262.278 79.3925 262.278 79.6712C262.278 79.9499 262.398 80.2172 262.612 80.4143C262.826 80.6114 263.117 80.7221 263.419 80.7221H277.056C277.359 80.7221 277.649 80.6114 277.863 80.4143C278.077 80.2172 278.197 79.9499 278.197 79.6712H278.174ZM448.366 354.844V348.539C448.366 348.26 448.246 347.993 448.032 347.796C447.818 347.599 447.527 347.488 447.225 347.488C446.922 347.488 446.632 347.599 446.418 347.796C446.204 347.993 446.084 348.26 446.084 348.539V354.844C446.084 355.123 446.204 355.39 446.418 355.587C446.632 355.784 446.922 355.895 447.225 355.895C447.527 355.895 447.818 355.784 448.032 355.587C448.246 355.39 448.366 355.123 448.366 354.844Z" fill="black"/>
<path opacity="0.1" d="M151.073 192.641V187.26H147.307V192.641H137.881V187.26H134.115V192.641H124.69V187.26H120.969V192.641H116.85V225.218H155.136V192.641H151.073ZM128.957 217.82H122.921V212.261H128.957V217.82ZM128.957 209.024H122.921V203.465H128.957V209.024ZM139.011 217.82H132.974V212.261H139.011V217.82ZM139.011 209.024H132.974V203.465H139.011V209.024ZM149.065 217.82H143.028V212.261H149.065V217.82ZM149.065 209.024H143.028V203.465H149.065V209.024Z" fill="black"/>
<path opacity="0.1" d="M372.457 458.514V453.133H368.691V458.514H359.265V453.133H355.499V458.514H346.073V453.133H342.353V458.514H338.291V491.091H376.576V458.514H372.457ZM350.341 483.735H344.304V478.176H350.341V483.735ZM350.341 474.939H344.304V469.338H350.341V474.939ZM360.395 483.735H354.358V478.176H360.395V483.735ZM360.395 474.939H354.358V469.338H360.395V474.939ZM370.448 483.735H364.411V478.176H370.448V483.735ZM370.448 474.939H364.411V469.338H370.448V474.939Z" fill="black"/>
<path opacity="0.1" d="M550.693 67.2814V61.9114H546.927V67.2814H537.49V61.9114H533.724V67.2814H524.309V61.9114H520.532V67.2814H516.47V99.8587H554.755V67.2814H550.693ZM528.577 92.5025H522.541V86.9013H528.577V92.5025ZM528.577 83.7066H522.541V78.1054H528.577V83.7066ZM538.631 92.4605H532.594V86.9013H538.631V92.4605ZM538.631 83.6646H532.594V78.1054H538.631V83.6646ZM548.684 92.4605H542.648V86.9013H548.684V92.4605ZM548.684 83.6646H542.648V78.1054H548.684V83.6646Z" fill="black"/>
<path d="M257.794 109.937H554.493C555.107 109.935 555.715 110.046 556.283 110.261C556.85 110.476 557.366 110.793 557.801 111.192C558.235 111.591 558.58 112.066 558.816 112.588C559.051 113.11 559.172 113.67 559.172 114.235V385.93H253.126V114.235C253.126 113.671 253.247 113.112 253.482 112.59C253.716 112.069 254.06 111.595 254.493 111.196C254.927 110.797 255.441 110.48 256.007 110.264C256.574 110.048 257.181 109.937 257.794 109.937Z" fill="#E5E5E5"/>
<path d="M305.562 202.183C305.564 203.628 305.101 205.042 304.23 206.245C303.36 207.447 302.121 208.385 300.671 208.939C299.222 209.493 297.626 209.639 296.086 209.357C294.547 209.076 293.133 208.38 292.023 207.358C290.913 206.336 290.157 205.033 289.852 203.616C289.546 202.198 289.704 200.729 290.306 199.394C290.908 198.059 291.926 196.918 293.232 196.116C294.538 195.315 296.073 194.888 297.642 194.89C299.742 194.893 301.754 195.662 303.239 197.029C304.724 198.396 305.559 200.25 305.562 202.183Z" fill="#CCCCCC"/>
<path d="M559.172 140.748L519.562 175.774C513.76 175.322 507.924 175.393 502.137 175.984C501.871 175.998 501.606 175.961 501.357 175.876C501.107 175.791 500.88 175.66 500.688 175.491C493.27 170.131 486.355 131.091 483.353 109.937H481.185C483.57 126.751 490.543 170.688 499.352 177.056C499.769 177.389 500.255 177.641 500.781 177.797C501.307 177.952 501.861 178.008 502.411 177.96C507.417 177.416 512.467 177.297 517.497 177.603L485.442 205.977L440.343 175.207C438.095 173.672 435.314 172.947 432.526 173.168C429.737 173.388 427.132 174.539 425.2 176.405C420.35 181.081 416.676 184.864 414.257 187.649C411.061 191.317 406.018 197.107 400.392 203.412L383.628 190.981C393.579 178.895 402.183 168.45 407.261 163.069C417.589 152.129 441.496 124.533 454.049 109.979H451.287C438.518 124.796 415.66 151.152 405.641 161.766C400.517 167.189 391.947 177.645 381.951 189.751L359.128 172.821C359.256 172.621 359.301 172.385 359.256 172.156C359.21 171.928 359.077 171.722 358.88 171.577C358.684 171.431 358.437 171.356 358.184 171.364C357.932 171.373 357.692 171.465 357.507 171.623L335.095 155.009C334.987 154.911 334.858 154.836 334.717 154.787C334.575 154.738 334.424 154.717 334.274 154.725C334.123 154.732 333.975 154.769 333.841 154.833C333.706 154.896 333.588 154.985 333.493 155.093C333.398 155.201 333.328 155.327 333.289 155.461C333.249 155.595 333.241 155.736 333.264 155.873C333.287 156.011 333.341 156.142 333.422 156.259C333.504 156.377 333.611 156.477 333.737 156.554L356.149 173.168C352.943 176.962 343.939 187.66 337.514 195.646L277.444 153.002C277.216 152.859 276.937 152.803 276.665 152.843C276.393 152.883 276.147 153.017 275.979 153.218C275.81 153.419 275.731 153.671 275.757 153.924C275.783 154.176 275.913 154.41 276.12 154.578L336.236 197.254C334.912 198.915 333.737 200.407 332.813 201.657C325.692 211.115 316.163 220.142 299.445 215.214C282.328 210.17 280.046 198.578 280.046 198.095C280.003 197.86 279.874 197.645 279.681 197.485L264.07 185.138C265.211 177.466 266.546 166.695 268.007 151.509C269.559 135.442 270.78 119.395 271.43 109.926H269.319C267.596 134.096 264.914 164.351 262.141 183.603L253.959 177.193V179.82L261.787 186.02C260.361 195.478 258.912 201.784 257.576 202.656C256.316 203.193 255.106 203.826 253.959 204.547V206.964C255.366 206.001 256.872 205.167 258.455 204.474C259.379 204.096 261.148 203.423 263.704 187.534L277.923 198.789C278.437 201.006 281.849 212.135 298.749 217.116C301.852 218.069 305.098 218.569 308.369 218.598C320.819 218.598 328.796 210.464 334.547 202.834C335.46 201.615 336.624 200.144 337.971 198.515L361.09 214.93C348.686 229.642 336.476 243.304 327.94 250.66C317.761 259.382 304.923 269.576 294.47 277.752C279.829 268.903 266.101 259.34 265.941 259.214H265.873L265.804 259.162L254.027 253.277V255.536L262.369 259.74C260.372 260.202 257.405 260.864 254.027 261.505V263.365C259.265 262.377 263.579 261.337 265.062 260.969C267.47 262.64 279.681 271.037 292.77 278.96C282.899 286.642 275.561 292.17 275.413 292.285C275.2 292.46 275.066 292.701 275.037 292.961C275.007 293.221 275.084 293.483 275.253 293.694C275.444 293.888 275.706 294.009 275.989 294.034C276.272 294.06 276.554 293.987 276.782 293.83C276.93 293.715 284.519 287.987 294.652 280.106C297.665 281.903 300.689 283.658 303.633 285.287L310.48 288.996C316.369 292.201 323.535 296.111 330.622 300.22L309.944 320.911C309.809 321.053 309.718 321.225 309.679 321.41C309.641 321.594 309.658 321.785 309.727 321.962C309.807 322.133 309.934 322.282 310.097 322.393C310.259 322.503 310.451 322.572 310.651 322.593C310.845 322.593 329.777 324.117 345.16 344.073C358.546 361.433 371.247 376.03 393.67 385.919H398.92C374.191 376.219 360.942 361.108 346.917 342.917C333.828 325.924 318.468 321.836 312.922 320.848L332.482 301.291C346.621 309.604 359.972 318.62 361.558 324.463C363.841 332.986 375.092 343.495 380.49 348.539C381.871 349.832 383.058 350.946 383.32 351.313C384.826 353.415 394.732 358.575 396.66 359.594L396.9 359.678C398.84 360.183 410.753 363.167 420.202 363.167C425.132 363.167 429.388 362.358 431.214 359.952C434.136 356.126 442.626 349.968 449.473 345.029C454.311 341.519 458.499 338.493 460.028 336.801C460.451 336.328 462.391 334.699 465.494 332.093L473.551 339.512L412.043 385.887H415.466L475.092 340.92L485.727 350.714L442.763 385.887H446.015L488.021 351.502C488.129 351.41 488.216 351.298 488.275 351.173C488.334 351.048 488.365 350.914 488.365 350.777C488.365 350.641 488.334 350.506 488.275 350.382C488.216 350.257 488.129 350.145 488.021 350.052L476.735 339.659L528.395 300.692L545.946 313.702L481.048 366.824C479.934 367.739 479.146 368.944 478.79 370.279C478.434 371.614 478.526 373.017 479.054 374.304C479.582 375.59 480.521 376.698 481.747 377.483C482.973 378.268 484.428 378.692 485.921 378.699C487.622 378.695 489.269 378.153 490.588 377.165L558.327 322.877L559.286 323.591V319.472L558.27 320.281L549.289 313.629L559.286 305.442V302.784L547.589 312.357L530.107 299.4L559.172 277.447V274.925L528.246 298.17L517.269 290.026C531.795 278.351 546.767 266.371 559.149 256.471V253.834C550.43 260.801 533.29 274.515 515.557 288.765L493.875 272.697C512.966 255.378 538.642 231.933 542.705 227.362C549.552 219.649 552.256 197.181 545.695 186.441C541.735 179.957 532.001 177.109 522.347 176.037L559.137 143.46L559.172 140.748ZM547.521 315.005L556.479 321.647L489.059 375.683C488 376.504 486.63 376.904 485.251 376.794C483.871 376.685 482.596 376.076 481.705 375.1C480.813 374.125 480.379 372.863 480.498 371.593C480.617 370.323 481.279 369.148 482.338 368.327L547.521 315.005ZM415.923 188.9C418.205 186.199 422.005 182.363 426.741 177.781C428.311 176.271 430.426 175.34 432.688 175.162C434.95 174.984 437.205 175.572 439.031 176.815L483.856 207.353L448.24 238.88L402.058 204.621C409.761 195.962 415.763 189.057 415.923 188.868V188.9ZM382.293 192.536L398.988 204.915C392.666 212.009 385.762 219.628 379.999 225.796L364.023 214.489C370.277 207.133 376.496 199.587 382.293 192.536ZM339.18 196.823C345.571 188.868 354.563 178.191 357.781 174.377L380.604 191.285C374.796 198.358 368.565 205.903 362.346 213.27L339.18 196.823ZM329.344 252.005C337.982 244.649 350.272 230.798 362.734 216.055L378.584 227.309C373.244 232.963 369.101 237.072 367.698 237.818C363.898 239.825 333.988 253.455 320.077 259.792C323.318 257.123 326.445 254.506 329.355 252.005H329.344ZM331.98 298.748C324.916 294.639 317.67 290.699 311.439 287.304C308.985 285.97 306.703 284.73 304.672 283.605C301.922 282.081 299.103 280.452 296.296 278.782C301.785 274.494 307.901 269.66 313.938 264.784C315.969 263.859 363.738 242.179 368.713 239.563C370.322 238.712 374.784 234.308 380.364 228.402H380.422C380.587 228.404 380.751 228.369 380.9 228.302C381.048 228.234 381.178 228.135 381.277 228.014C381.371 227.902 381.437 227.772 381.471 227.634C381.504 227.496 381.504 227.353 381.471 227.215C387.428 220.91 394.458 213.081 400.62 206.197L446.654 240.246L422.975 261.19H422.918L386.127 302.889L353.068 279.023C352.848 278.879 352.579 278.811 352.309 278.832C352.039 278.853 351.787 278.962 351.596 279.139L331.98 298.748ZM429.309 358.859C425.554 363.798 405.173 359.825 397.47 357.808C393.088 355.527 385.922 351.502 384.986 350.22C384.03 349.136 382.996 348.111 381.894 347.152C376.633 342.234 365.689 331.988 363.521 324.033C361.775 317.591 348.389 308.416 333.851 299.862L352.52 281.199L385.614 305.169C385.841 305.319 386.12 305.386 386.397 305.359C386.675 305.332 386.932 305.212 387.12 305.022L422.941 264.416L434.147 354.088C432.372 355.528 430.755 357.126 429.32 358.859H429.309ZM464.536 330.107C460.964 333.07 458.682 335.025 458.18 335.571C456.799 337.095 452.474 340.216 447.909 343.505C443.915 346.406 439.636 349.516 436.064 352.396L424.858 262.314L448.343 241.538L490.634 272.823C479.793 282.659 471.463 290.152 471.234 290.352C471.071 290.507 470.963 290.705 470.926 290.919L464.536 330.107ZM515.602 291.361L526.523 299.463L475.046 338.282L466.921 330.8C476.803 322.624 495.678 307.387 515.614 291.361H515.602ZM513.891 290.089C495.918 304.539 477.591 319.335 467.103 328.015L473.037 291.571C474.738 290.037 482.543 283.006 492.369 274.105L513.891 290.089ZM492.209 271.436L449.986 240.109L485.67 208.583L528.806 238.007C518.535 247.476 504.065 260.675 492.186 271.436H492.209ZM543.846 187.366C549.928 197.349 547.384 218.944 541.062 226.059C539.692 227.604 535.71 231.439 530.289 236.505L487.199 207.08L520.372 177.813C530.392 178.748 540.217 181.512 543.823 187.408L543.846 187.366Z" fill="white"/>
<path d="M548.628 354.056H376.759V381.348H548.628V354.056Z" fill="white"/>
<path d="M399.65 367.087H388.341V378.994H399.65V367.087Z" fill="#2F88FF"/>
<path d="M415.272 366.835H403.964V378.994H415.272V366.835Z" fill="#2F88FF"/>
<path d="M430.895 364.113H419.586V378.993H430.895V364.113Z" fill="#2F88FF"/>
<path d="M446.517 371.059H435.208V378.994H446.517V371.059Z" fill="#2F88FF"/>
<path d="M462.14 363.115H450.831V378.993H462.14V363.115Z" fill="#2F88FF"/>
<path d="M477.773 367.833H466.465V378.994H477.773V367.833Z" fill="#2F88FF"/>
<path d="M493.396 373.035H482.087V378.993H493.396V373.035Z" fill="#2F88FF"/>
<path d="M509.03 370.061H497.709V378.994H509.03V370.061Z" fill="#2F88FF"/>
<path d="M524.64 372.541H513.332V378.993H524.64V372.541Z" fill="#2F88FF"/>
<path d="M540.275 363.115H528.966V378.993H540.275V363.115Z" fill="#2F88FF"/>
<path d="M253.959 385.929H330.416C325.178 383.617 317.304 379.981 316.346 378.668C314.908 376.682 306.988 364.071 302.652 363.409C298.316 362.747 296.889 367.392 296.889 367.392L306.247 381.326L302.652 379.33C302.652 379.33 294.002 370.702 291.845 369.378C289.689 368.054 291.845 362.747 292.564 358.764C293.283 354.781 298.27 352.133 299.765 348.812C301.26 345.491 299.765 335.54 299.765 332.229C299.765 328.919 293.283 318.957 288.958 310.991C284.633 303.025 270.232 287.777 262.301 284.456C259.623 283.442 256.803 282.781 253.925 282.491L253.959 385.929Z" fill="#CCCCCC"/>
<path d="M433.805 188.91L422.279 202.183L436.692 219.438L463.349 206.828L433.805 188.91Z" fill="#CCCCCC"/>
<path d="M448.218 248.632L431.648 263.229L438.13 295.732L456.137 300.377L461.912 286.442L479.2 271.184L448.218 248.632Z" fill="#CCCCCC"/>
<path d="M257.794 109.937H554.493C555.107 109.935 555.715 110.046 556.283 110.261C556.85 110.476 557.366 110.793 557.801 111.192C558.235 111.591 558.58 112.066 558.816 112.588C559.051 113.11 559.172 113.67 559.172 114.235V385.929H253.126V114.235C253.126 113.671 253.247 113.112 253.482 112.59C253.716 112.069 254.06 111.595 254.493 111.196C254.927 110.797 255.441 110.48 256.007 110.264C256.574 110.048 257.181 109.937 257.794 109.937Z" stroke="#263238" stroke-linecap="round" stroke-linejoin="round"/>
<path d="M257.794 109.937H554.493C555.107 109.935 555.715 110.046 556.283 110.261C556.85 110.476 557.366 110.793 557.801 111.192C558.235 111.591 558.58 112.066 558.816 112.588C559.051 113.11 559.172 113.67 559.172 114.235V163.006H253.126V114.235C253.126 113.671 253.247 113.112 253.482 112.59C253.716 112.069 254.06 111.595 254.493 111.196C254.927 110.797 255.441 110.48 256.007 110.264C256.574 110.048 257.181 109.937 257.794 109.937Z" fill="#2F88FF" stroke="#263238" stroke-linecap="round" stroke-linejoin="round"/>
<path d="M514.496 143.134H273.142V152.424H514.496V143.134Z" fill="white" stroke="#263238" stroke-linecap="round" stroke-linejoin="round"/>
<path d="M554.721 109.937H272.948V133.834H559.172V114.003C559.17 113.467 559.054 112.936 558.829 112.441C558.605 111.947 558.276 111.497 557.863 111.12C557.45 110.742 556.959 110.443 556.42 110.24C555.881 110.037 555.304 109.934 554.721 109.937Z" fill="#808080" stroke="#263238" stroke-linecap="round" stroke-linejoin="round"/>
<path d="M257.794 109.937H554.493C555.107 109.935 555.715 110.046 556.283 110.261C556.85 110.476 557.366 110.793 557.801 111.192C558.235 111.591 558.58 112.066 558.816 112.588C559.051 113.11 559.172 113.67 559.172 114.235V125.479H253.126V114.235C253.126 113.671 253.247 113.112 253.482 112.59C253.716 112.069 254.06 111.595 254.493 111.196C254.927 110.797 255.441 110.48 256.007 110.264C256.574 110.048 257.181 109.937 257.794 109.937Z" fill="#263238" stroke="#263238" stroke-linecap="round" stroke-linejoin="round"/>
<path d="M546.574 120.099C547.847 120.099 548.879 119.148 548.879 117.976C548.879 116.804 547.847 115.853 546.574 115.853C545.301 115.853 544.269 116.804 544.269 117.976C544.269 119.148 545.301 120.099 546.574 120.099Z" fill="white"/>
<path d="M537.057 120.099C538.33 120.099 539.362 119.148 539.362 117.976C539.362 116.804 538.33 115.853 537.057 115.853C535.783 115.853 534.751 116.804 534.751 117.976C534.751 119.148 535.783 120.099 537.057 120.099Z" fill="white"/>
<path d="M527.539 120.099C528.812 120.099 529.844 119.148 529.844 117.976C529.844 116.804 528.812 115.853 527.539 115.853C526.266 115.853 525.234 116.804 525.234 117.976C525.234 119.148 526.266 120.099 527.539 120.099Z" fill="white"/>
<path d="M479.177 204.516H441.177C440.468 204.514 439.767 204.642 439.112 204.89C438.457 205.139 437.862 205.504 437.361 205.965C436.859 206.426 436.462 206.973 436.19 207.575C435.919 208.178 435.779 208.824 435.779 209.476V242.348C435.779 243 435.919 243.646 436.19 244.248C436.462 244.851 436.859 245.398 437.361 245.859C437.862 246.319 438.457 246.684 439.112 246.933C439.767 247.182 440.468 247.309 441.177 247.308H452.417L460.679 262.314L468.268 247.339H479.177C480.606 247.339 481.976 246.817 482.986 245.886C483.996 244.956 484.563 243.695 484.563 242.379V209.476C484.563 208.16 483.996 206.899 482.986 205.969C481.976 205.038 480.606 204.516 479.177 204.516Z" fill="#263238" stroke="#263238" stroke-linecap="round" stroke-linejoin="round"/>
<path d="M453.045 220.479L454.357 212.439H457.05V223.768H455.224V215.645L453.889 223.768H452.063L450.614 215.76V223.768H448.937V212.439H451.618L453.045 220.479Z" fill="#2F88FF"/>
<path d="M458.249 215.161C458.249 214.445 458.558 213.758 459.108 213.252C459.658 212.745 460.403 212.461 461.181 212.461C461.959 212.461 462.705 212.745 463.255 213.252C463.805 213.758 464.114 214.445 464.114 215.161V221.046C464.114 221.762 463.805 222.449 463.255 222.956C462.705 223.462 461.959 223.747 461.181 223.747C460.403 223.747 459.658 223.462 459.108 222.956C458.558 222.449 458.249 221.762 458.249 221.046V215.161ZM460.177 221.162C460.177 221.971 460.565 222.276 461.181 222.276C461.798 222.276 462.174 221.971 462.174 221.162V215.025C462.174 214.215 461.786 213.911 461.181 213.911C460.576 213.911 460.177 214.215 460.177 215.025V221.162Z" fill="#2F88FF"/>
<path d="M467.081 215.561V223.768H465.346V212.439H467.765L469.751 219.218V212.439H471.474V223.768H469.489L467.081 215.561Z" fill="#2F88FF"/>
<path d="M456.742 229.443C456.126 229.443 455.749 229.748 455.749 230.557V231.765H453.912V230.714C453.912 228.896 454.905 227.866 456.799 227.866C458.693 227.866 459.675 228.917 459.675 230.714C459.675 234.266 455.829 235.601 455.829 237.461C455.818 237.541 455.818 237.622 455.829 237.703H459.481V239.321H453.889V237.923C453.889 234.592 457.723 234.046 457.723 230.777C457.746 229.737 457.358 229.443 456.742 229.443Z" fill="#2F88FF"/>
<path d="M463.703 229.443C463.087 229.443 462.699 229.748 462.699 230.557V231.765H460.873V230.714C460.873 228.896 461.866 227.866 463.76 227.866C465.654 227.866 466.636 228.917 466.636 230.714C466.636 234.266 462.79 235.601 462.79 237.461C462.779 237.541 462.779 237.622 462.79 237.703H466.441V239.321H460.85V237.923C460.85 234.592 464.684 234.046 464.684 230.777C464.707 229.737 464.319 229.443 463.703 229.443Z" fill="#2F88FF"/>
<path d="M460.177 273.391C462.503 273.391 464.388 271.654 464.388 269.513C464.388 267.371 462.503 265.635 460.177 265.635C457.852 265.635 455.966 267.371 455.966 269.513C455.966 271.654 457.852 273.391 460.177 273.391Z" fill="#2F88FF" stroke="#263238" stroke-linecap="round" stroke-linejoin="round"/>
<path d="M330.222 176.352C332.548 176.352 334.433 174.616 334.433 172.475C334.433 170.333 332.548 168.597 330.222 168.597C327.897 168.597 326.011 170.333 326.011 172.475C326.011 174.616 327.897 176.352 330.222 176.352Z" fill="#2F88FF" stroke="#263238" stroke-linecap="round" stroke-linejoin="round"/>
<path d="M389.928 268.22C389.925 268.987 389.676 269.735 389.212 270.372C388.748 271.008 388.09 271.503 387.32 271.795C386.551 272.087 385.704 272.162 384.888 272.012C384.072 271.861 383.323 271.491 382.735 270.948C382.147 270.405 381.747 269.714 381.586 268.962C381.424 268.21 381.508 267.431 381.827 266.723C382.147 266.015 382.686 265.41 383.378 264.985C384.071 264.559 384.884 264.332 385.717 264.332C386.271 264.332 386.819 264.433 387.331 264.628C387.842 264.824 388.307 265.11 388.698 265.471C389.089 265.833 389.399 266.261 389.61 266.733C389.821 267.205 389.929 267.71 389.928 268.22Z" fill="#2F88FF" stroke="#263238" stroke-linecap="round" stroke-linejoin="round"/>
<path d="M296.262 242.873C298.587 242.873 300.472 241.137 300.472 238.995C300.472 236.854 298.587 235.118 296.262 235.118C293.936 235.118 292.051 236.854 292.051 238.995C292.051 241.137 293.936 242.873 296.262 242.873Z" fill="#2F88FF" stroke="#263238" stroke-linecap="round" stroke-linejoin="round"/>
<path d="M313.733 336.601C313.733 337.37 313.485 338.122 313.021 338.761C312.557 339.401 311.898 339.899 311.126 340.193C310.355 340.488 309.506 340.565 308.687 340.415C307.868 340.265 307.115 339.894 306.525 339.35C305.935 338.807 305.532 338.114 305.369 337.36C305.207 336.605 305.29 335.824 305.61 335.113C305.929 334.403 306.47 333.795 307.165 333.368C307.859 332.941 308.676 332.713 309.511 332.713C310.63 332.713 311.704 333.122 312.496 333.852C313.288 334.581 313.733 335.57 313.733 336.601Z" fill="#2F88FF" stroke="#263238" stroke-linecap="round" stroke-linejoin="round"/>
<path d="M508.95 334.058C511.275 334.058 513.161 332.322 513.161 330.18C513.161 328.038 511.275 326.302 508.95 326.302C506.624 326.302 504.739 328.038 504.739 330.18C504.739 332.322 506.624 334.058 508.95 334.058Z" fill="#2F88FF" stroke="#263238" stroke-linecap="round" stroke-linejoin="round"/>
<path d="M530.529 214.615C532.854 214.615 534.74 212.879 534.74 210.737C534.74 208.596 532.854 206.859 530.529 206.859C528.203 206.859 526.318 208.596 526.318 210.737C526.318 212.879 528.203 214.615 530.529 214.615Z" fill="#2F88FF" stroke="#263238" stroke-linecap="round" stroke-linejoin="round"/>
<path d="M507.945 177.004C510.271 177.004 512.156 175.268 512.156 173.126C512.156 170.984 510.271 169.248 507.945 169.248C505.62 169.248 503.734 170.984 503.734 173.126C503.734 175.268 505.62 177.004 507.945 177.004Z" fill="#2F88FF" stroke="#263238" stroke-linecap="round" stroke-linejoin="round"/>
<path d="M519.437 273.643C519.437 274.412 519.189 275.164 518.725 275.804C518.26 276.444 517.6 276.942 516.828 277.236C516.056 277.53 515.206 277.606 514.387 277.455C513.567 277.305 512.815 276.933 512.225 276.388C511.635 275.844 511.234 275.15 511.072 274.395C510.911 273.64 510.996 272.858 511.317 272.147C511.638 271.437 512.181 270.831 512.877 270.405C513.573 269.979 514.391 269.752 515.226 269.754C515.78 269.754 516.329 269.855 516.84 270.051C517.352 270.246 517.816 270.533 518.208 270.894C518.599 271.255 518.909 271.684 519.12 272.156C519.331 272.627 519.438 273.133 519.437 273.643Z" fill="#2F88FF" stroke="#263238" stroke-linecap="round" stroke-linejoin="round"/>
<path d="M403.279 237.167C405.605 237.167 407.49 235.431 407.49 233.289C407.49 231.147 405.605 229.411 403.279 229.411C400.954 229.411 399.068 231.147 399.068 233.289C399.068 235.431 400.954 237.167 403.279 237.167Z" fill="#2F88FF" stroke="#263238" stroke-linecap="round" stroke-linejoin="round"/>
<path d="M160.339 403.132C160.339 403.132 162.906 429.404 163.762 434.921C164.618 440.438 160.909 443.854 157.201 447.532C153.492 451.21 152.065 458.829 152.065 464.609C152.065 470.388 151.209 499.288 151.209 501.127C151.209 502.966 150.639 507.432 150.639 507.432C150.639 507.432 159.768 507.169 160.909 507.169C162.05 507.169 166.33 492.194 167.471 487.991C168.612 483.787 177.456 457.252 180.879 449.896C184.303 442.54 184.303 437.023 185.729 434.133C187.156 431.243 188.868 407.598 188.868 407.598C188.868 407.598 204.273 432.557 204.844 435.972C205.414 439.388 205.7 440.176 204.273 443.066C202.847 445.956 199.708 451.21 199.994 462.507C200.279 473.804 207.012 493.792 207.012 493.792L207.868 506.139C207.868 506.139 213.003 507.978 215.57 509.029C218.138 510.08 222.132 504.563 222.132 504.563C222.132 504.563 221.961 495.347 221.676 488.516C221.39 481.685 223.387 456.99 224.529 452.786C225.67 448.583 227.381 439.388 226.24 433.608C225.099 427.828 221.39 401.293 221.39 401.293C221.39 401.293 178.027 403.658 172.606 402.869C167.186 402.081 160.053 401.819 160.053 401.819L160.339 403.132Z" fill="#263238" stroke="#263238" stroke-linecap="round" stroke-linejoin="round"/>
<path d="M166.045 498.5L167.756 506.644C167.756 506.644 174.889 512.161 177.742 514.263C180.594 516.365 182.306 515.839 182.306 517.678C182.306 519.517 180.309 522.407 175.459 523.195C170.609 523.983 164.048 522.933 158.627 521.356C155.544 520.53 152.793 518.885 150.719 516.627C150.719 516.627 147.729 517.268 147.729 514.116C147.729 510.963 150.194 503.817 150.194 503.817C150.194 503.817 149.053 499.908 150.194 499.382C151.335 498.857 155.204 502.703 155.204 502.703C155.204 502.703 155.774 493.508 166.045 498.5Z" fill="white" stroke="#263238" stroke-linecap="round" stroke-linejoin="round"/>
<path d="M182.158 518.582C181.572 518.419 180.943 518.448 180.378 518.666C177.255 520.288 173.744 521.172 170.159 521.238C166.574 521.304 163.028 520.55 159.837 519.044C153.116 516.081 149.681 513.107 148.072 511.362C147.866 512.279 147.747 513.211 147.718 514.147C147.718 517.3 150.708 516.659 150.708 516.659C152.79 518.907 155.544 520.54 158.627 521.356C164.048 522.933 170.61 523.983 175.459 523.195C179.568 522.523 181.622 520.347 182.158 518.582Z" fill="#D2F4DC" stroke="#263238" stroke-linecap="round" stroke-linejoin="round"/>
<path d="M224.631 498.258C223.806 498.115 222.952 498.226 222.202 498.574C221.451 498.921 220.846 499.486 220.478 500.181C219.199 502.651 217.921 505.95 217.921 505.95C215.766 505.768 213.632 505.416 211.542 504.899C210.575 504.401 209.71 503.75 208.986 502.976C208.986 502.976 206.43 498.31 204.832 499.96C203.235 501.61 206.43 507.096 206.43 507.096C206.43 507.096 203.874 511.488 203.874 514.242C203.946 516.125 204.379 517.982 205.152 519.727C208.191 520.367 211.29 520.736 214.407 520.831C218.56 520.831 218.88 519.727 223.353 519.727C227.827 519.727 239.329 522.197 243.152 521.377C246.975 520.558 250.501 518.077 250.182 516.438C249.862 514.799 236.762 510.669 232.608 508.199C228.454 505.73 227.827 506.003 227.188 504.899C226.548 503.796 224.631 498.258 224.631 498.258Z" fill="white" stroke="#263238" stroke-linecap="round" stroke-linejoin="round"/>
<path d="M250.193 516.627C245.789 520.726 239.923 520.095 234.948 519.17C228.828 517.887 222.546 517.385 216.278 517.678C212.292 517.889 208.293 517.766 204.331 517.31C204.54 518.113 204.815 518.9 205.152 519.664C208.192 520.304 211.291 520.673 214.407 520.768C218.561 520.768 218.88 519.664 223.354 519.664C227.827 519.664 239.33 522.134 243.153 521.314C246.793 520.537 250.136 518.277 250.193 516.627Z" fill="#2F88FF" stroke="#263238" stroke-linecap="round" stroke-linejoin="round"/>
<path d="M153.777 393.674L152.922 405.402C152.922 405.402 174.318 409.868 192.006 409.406C209.694 408.944 228.523 402.113 228.523 402.113L224.814 389.881C224.814 389.881 185.73 389.649 178.027 389.177C170.324 388.704 165.474 383.765 162.621 384.469C159.769 385.173 156.345 393.412 156.345 393.412L153.777 393.674Z" fill="white" stroke="#263238" stroke-linecap="round" stroke-linejoin="round"/>
<path d="M224.814 381.327L227.381 393.412C227.381 393.412 221.961 396.302 205.414 397.615C188.867 398.929 167.756 397.09 167.756 397.09L163.762 389.208L162.336 398.403H154.062C153.264 398.422 152.475 398.241 151.78 397.878L154.348 388.157C154.348 388.157 155.489 378.437 160.909 376.072C166.33 373.708 170.894 376.335 174.603 379.487C178.312 382.64 182.591 382.115 188.582 382.115C194.573 382.115 219.964 379.75 219.964 379.75C219.964 379.75 224.243 378.437 224.814 381.327Z" fill="#969696" stroke="#263238" stroke-linecap="round" stroke-linejoin="round"/>
<path d="M216.256 292.002C216.256 292.002 226.526 316.172 230.805 324.842C235.085 333.511 239.079 343.495 238.508 349.012C237.937 354.529 230.805 368.979 230.805 368.979C230.805 368.979 223.958 327.469 222.532 323.265C221.105 319.062 214.544 295.68 214.544 295.68C214.544 295.68 211.691 290.688 216.256 292.002Z" fill="#2F88FF" stroke="#263238" stroke-linecap="round" stroke-linejoin="round"/>
<path d="M160.236 282.838C160.236 282.838 154.245 288.565 152.396 295.564C150.548 302.563 149.178 389.944 149.178 391.425C149.178 392.907 156.025 389.513 157.463 388.882C158.901 388.252 164.607 378.279 164.607 378.279L167.368 388.451C167.368 388.451 180.035 387.18 190.636 387.18C201.238 387.18 229.093 384.847 229.093 384.847C229.093 384.847 231.626 370.639 231.375 362.999C231.124 355.359 229.378 343.285 229.378 341.372C229.378 339.459 220.626 299.169 217.408 293.231C214.19 287.294 210.036 281.987 209.34 281.566C208.644 281.146 200.359 276.68 192.531 276.312C184.702 275.944 179.407 273.979 172.492 276.953C165.577 279.927 160.236 282.838 160.236 282.838Z" fill="#2F88FF" stroke="#263238" stroke-linecap="round" stroke-linejoin="round"/>
<path d="M205.14 308.921C205.14 308.921 209.055 329.707 210.207 336.706C211.36 343.705 213.893 371.059 213.893 375.095V384.637" stroke="#263238" stroke-linecap="round" stroke-linejoin="round"/>
<path d="M198.237 317.832C198.237 317.832 202.607 338.619 204.912 351.124C207.217 363.63 206.556 381.453 206.556 381.453" stroke="#263238" stroke-linecap="round" stroke-linejoin="round"/>
<path d="M173.359 319.524L193.17 317.832L193.854 321.857L174.74 323.339" stroke="#263238" stroke-linecap="round" stroke-linejoin="round"/>
<path d="M222.874 315.279L211.36 316.13L212.284 319.734L222.418 318.894" stroke="#263238" stroke-linecap="round" stroke-linejoin="round"/>
<path d="M189.713 263.743C189.713 263.743 179.111 261.841 175.893 263.113C172.675 264.384 169.674 269.471 168.75 271.173C167.825 272.876 158.16 276.428 157.464 279.013C156.767 281.598 157.235 285.801 158.388 286.863C159.54 287.924 166.216 287.504 167.837 287.914C169.457 288.323 191.093 301.491 194.779 303.614C198.465 305.737 204.913 308.7 205.837 307.817C206.761 306.935 212.513 293.841 213.403 287.714C214.293 281.587 213.163 280.074 210.173 274.988C207.184 269.902 195.236 264.416 189.713 263.743Z" fill="#263238" stroke="#263238" stroke-linecap="round" stroke-linejoin="round"/>
<path d="M186.483 246.992C186.483 246.992 188.104 256.324 188.104 258.867C188.104 261.41 183.733 273.506 183.733 273.506C183.733 273.506 192.486 290.898 197.324 295.774C202.163 300.65 204.468 301.712 204.468 301.712C204.468 301.712 205.152 291.739 205.848 287.073C206.545 282.407 213.837 268.767 213.837 268.767C213.837 268.767 202.87 270.322 201.489 263.743C200.108 257.165 200.565 251.448 199.207 248.054C197.849 244.659 189.256 245.5 186.483 246.992Z" fill="white" stroke="#263238" stroke-linecap="round" stroke-linejoin="round"/>
<path d="M202.048 265.646L196.788 264.742L197.221 268.945C197.221 268.945 200.462 276.711 206.522 280.694C206.838 280.902 207.166 281.095 207.503 281.272C208.758 277.93 213.802 268.788 213.802 268.788C213.802 268.788 204.274 271.205 202.048 265.646Z" fill="#263238" stroke="#263238" stroke-linecap="round" stroke-linejoin="round"/>
<path d="M220.58 244.386L220.215 250.208C220.215 250.208 225.921 254.012 226.491 255.851C227.062 257.69 223.73 260.055 223.73 260.055C223.73 260.055 223.216 270.101 222.269 271.678C221.322 273.254 216.563 273.38 213.939 273.401C211.314 273.422 198.293 269.975 196.045 268.147C193.797 266.318 191.081 259.74 191.081 259.74C191.081 259.74 188.206 250.355 187.761 248.926C187.315 247.497 188.902 245.542 195.749 243.556C202.596 241.57 220.945 241.654 220.58 244.386Z" fill="white" stroke="#263238" stroke-linecap="round" stroke-linejoin="round"/>
<path d="M189.804 251.227C189.804 251.227 191.378 254.464 194.368 252.425C196.245 250.916 197.499 248.856 197.917 246.593L180.48 250.944C180.48 250.944 179.122 257.48 181.861 260.591C184.6 263.701 188.594 261.936 188.366 259.267C188.138 256.597 189.804 251.227 189.804 251.227Z" fill="#263238" stroke="#263238" stroke-linecap="round" stroke-linejoin="round"/>
<path d="M218.971 263.365C218.971 263.365 215.171 263.47 212.935 261.621" stroke="#263238" stroke-linecap="round" stroke-linejoin="round"/>
<path d="M214.84 250.618C215.137 251.574 214.977 252.457 214.487 252.583C213.996 252.709 213.345 252.037 213.06 251.08C212.775 250.124 212.935 249.241 213.425 249.115C213.916 248.989 214.544 249.704 214.84 250.618Z" fill="#263238"/>
<path d="M180.195 251.585C180.195 251.585 190.466 250.008 202.893 246.782C215.32 243.556 220.718 241.706 220.718 241.706L215.172 225.586C214.504 224.175 213.281 223.048 211.748 222.433C208.199 220.962 200.827 221.298 195.521 222.055C187.955 223.106 182.101 225.113 179.077 230.084C176.742 234.142 176.14 238.857 177.388 243.304C178.221 245.92 180.195 251.585 180.195 251.585Z" fill="#263238" stroke="#263238" stroke-linecap="round" stroke-linejoin="round"/>
<path d="M198.682 247.875C198.682 247.875 217.546 246.94 224.758 245.511C231.97 244.081 237.915 236.137 237.915 236.137L220.638 238.238C212.407 239.261 204.729 242.631 198.682 247.875Z" fill="#263238" stroke="#263238" stroke-linecap="round" stroke-linejoin="round"/>
<path d="M191.516 252.604C191.516 252.604 189.918 248.169 185.81 249.672C181.702 251.175 183.973 258.531 187.031 261.474C190.089 264.416 193.878 260.36 193.878 260.36" fill="white"/>
<path d="M191.516 252.604C191.516 252.604 189.918 248.169 185.81 249.672C181.702 251.175 183.973 258.531 187.031 261.474C190.089 264.416 193.878 260.36 193.878 260.36" stroke="#263238" stroke-linecap="round" stroke-linejoin="round"/>
<path d="M211.588 342.181L231.661 328.362C231.796 328.272 231.963 328.231 232.129 328.247L246.199 329.487C246.37 329.503 246.531 329.569 246.659 329.674C246.787 329.779 246.876 329.918 246.914 330.072C246.952 330.227 246.936 330.388 246.869 330.533C246.803 330.679 246.688 330.802 246.542 330.884L228.648 340.731L211.588 342.181Z" fill="#263238" stroke="#263238" stroke-linecap="round" stroke-linejoin="round"/>
<path d="M199.149 343.064C201.115 342.897 202.972 342.161 204.456 340.962C206.521 339.049 210.162 333.322 211.816 332.902C215.615 332.126 219.459 331.557 223.331 331.199C224.951 331.199 225.864 332.25 224.472 333.532C223.079 334.814 216.643 337.568 216.643 337.568L215.959 339.669C215.959 339.669 233.453 337.767 234.845 337.767C235.437 337.804 235.994 338.038 236.414 338.424C236.834 338.81 237.087 339.324 237.127 339.869C237.127 340.71 233.441 343.263 232.3 344.314C229.443 346.536 226.44 348.593 223.308 350.473C221.699 351.313 205.118 350.042 204.433 350.042C203.748 350.042 198.898 351.093 198.898 351.093L199.149 343.064Z" fill="white" stroke="#263238" stroke-linecap="round" stroke-linejoin="round"/>
<path d="M235.084 341.792C235.084 341.792 227.713 343.285 226.104 344.125C224.495 344.966 218.96 344.125 218.96 344.125" stroke="#263238" stroke-linecap="round" stroke-linejoin="round"/>
<path d="M229.778 346.038L224.712 347.52L219.417 347.73" stroke="#263238" stroke-linecap="round" stroke-linejoin="round"/>
<path d="M172.903 302.773C173.132 306.588 168.065 329.707 168.065 329.707L169.206 333.102V333.953L201.215 342.002C201.215 342.002 201.215 350.063 199.835 353.667C198.753 356.937 197.907 360.268 197.301 363.64C197.301 363.64 183.254 360.487 171.739 356.851C160.225 353.215 142.252 347.95 138.806 344.335C135.359 340.72 137.425 331.62 137.881 330.128C138.338 328.635 151.233 297.466 153.766 293.231C156.3 288.996 159.986 284.961 164.824 286.232C169.662 287.504 173.348 293.231 173.805 295.774" fill="#2F88FF"/>
<path d="M172.903 302.773C173.132 306.588 168.065 329.707 168.065 329.707L169.206 333.102V333.953L201.215 342.002C201.215 342.002 201.215 350.063 199.835 353.667C198.753 356.937 197.907 360.268 197.301 363.64C197.301 363.64 183.254 360.487 171.739 356.851C160.225 353.215 142.252 347.95 138.806 344.335C135.359 340.72 137.425 331.62 137.881 330.128C138.338 328.635 151.233 297.466 153.766 293.231C156.3 288.996 159.986 284.961 164.824 286.232C169.662 287.504 173.348 293.231 173.805 295.774" stroke="#263238" stroke-linecap="round" stroke-linejoin="round"/>
<path d="M151.974 334.678C153.73 333.72 155.575 332.908 157.486 332.25C159.563 331.83 167.62 333.522 167.62 333.522" stroke="#263238" stroke-linecap="round" stroke-linejoin="round"/>
<path d="M145.264 338.188C145.264 338.188 147.204 337.137 149.567 335.907" stroke="#263238" stroke-linecap="round" stroke-linejoin="round"/>
<path d="M159.643 327.584C158.512 327.09 157.315 326.736 156.082 326.534C154.473 326.534 147.33 329.686 147.33 329.686" stroke="#263238" stroke-linecap="round" stroke-linejoin="round"/>
<path d="M165.76 330.128C165.76 330.128 164.436 329.539 162.747 328.835" stroke="#263238" stroke-linecap="round" stroke-linejoin="round"/>
</svg>
