<svg width="491" height="71" viewBox="0 0 491 71" fill="none" xmlns="http://www.w3.org/2000/svg">
<path d="M2 57.4167H60.3333" stroke="#322153" stroke-width="4" stroke-linecap="round" stroke-linejoin="round"/>
<path d="M22.4166 28.25H10.7499C9.13909 28.25 7.83325 29.5558 7.83325 31.1667V54.5C7.83325 56.1108 9.13909 57.4167 10.7499 57.4167H22.4166C24.0274 57.4167 25.3333 56.1108 25.3333 54.5V31.1667C25.3333 29.5558 24.0274 28.25 22.4166 28.25Z" fill="#2F88FF" stroke="#322153" stroke-width="4" stroke-linejoin="round"/>
<path d="M51.5833 2H28.2499C26.6391 2 25.3333 3.30584 25.3333 4.91667V54.5C25.3333 56.1108 26.6391 57.4167 28.2499 57.4167H51.5833C53.1941 57.4167 54.4999 56.1108 54.4999 54.5V4.91667C54.4999 3.30584 53.1941 2 51.5833 2Z" fill="#2F88FF" stroke="#322153" stroke-width="4" stroke-linejoin="round"/>
<path d="M37 42.8455H42.8333" stroke="white" stroke-width="4" stroke-linecap="round" stroke-linejoin="round"/>
<path d="M13.6667 42.8455H19.5001" stroke="white" stroke-width="4" stroke-linecap="round" stroke-linejoin="round"/>
<path d="M37 29.7205H42.8333" stroke="white" stroke-width="4" stroke-linecap="round" stroke-linejoin="round"/>
<path d="M37 16.5955H42.8333" stroke="white" stroke-width="4" stroke-linecap="round" stroke-linejoin="round"/>
<path d="M88.216 50.384C89.624 50.384 90.776 50.2773 91.672 50.064C92.6107 49.808 93.3573 49.488 93.912 49.104C94.4667 48.6773 94.8507 48.1867 95.064 47.632C95.2773 47.0773 95.384 46.4587 95.384 45.776C95.384 44.3253 94.7013 43.1307 93.336 42.192C91.9707 41.2107 89.624 40.1653 86.296 39.056C84.8453 38.544 83.3947 37.968 81.944 37.328C80.4933 36.6453 79.192 35.8133 78.04 34.832C76.888 33.808 75.9493 32.592 75.224 31.184C74.4987 29.7333 74.136 27.984 74.136 25.936C74.136 23.888 74.52 22.0533 75.288 20.432C76.056 18.768 77.144 17.36 78.552 16.208C79.96 15.056 81.6667 14.1813 83.672 13.584C85.6773 12.944 87.9387 12.624 90.456 12.624C93.4427 12.624 96.024 12.944 98.2 13.584C100.376 14.224 102.168 14.928 103.576 15.696L100.696 23.568C99.4587 22.928 98.072 22.3733 96.536 21.904C95.0427 21.392 93.2293 21.136 91.096 21.136C88.7067 21.136 86.9787 21.4773 85.912 22.16C84.888 22.8 84.376 23.8027 84.376 25.168C84.376 25.9787 84.568 26.6613 84.952 27.216C85.336 27.7707 85.8693 28.2827 86.552 28.752C87.2773 29.1787 88.088 29.584 88.984 29.968C89.9227 30.3093 90.9467 30.672 92.056 31.056C94.36 31.9093 96.3653 32.7627 98.072 33.616C99.7787 34.4267 101.187 35.3867 102.296 36.496C103.448 37.6053 104.301 38.9067 104.856 40.4C105.411 41.8933 105.688 43.7067 105.688 45.84C105.688 49.9787 104.237 53.2 101.336 55.504C98.4347 57.7653 94.0613 58.896 88.216 58.896C86.2533 58.896 84.4827 58.768 82.904 58.512C81.3253 58.2987 79.9173 58.0213 78.68 57.68C77.4853 57.3387 76.44 56.976 75.544 56.592C74.6907 56.208 73.9653 55.8453 73.368 55.504L76.184 47.568C77.5067 48.2933 79.128 48.9547 81.048 49.552C83.0107 50.1067 85.4 50.384 88.216 50.384ZM121.754 35.792C121.754 37.968 122.01 39.9307 122.522 41.68C123.077 43.4293 123.845 44.944 124.826 46.224C125.85 47.4613 127.087 48.4213 128.538 49.104C129.989 49.7867 131.653 50.128 133.53 50.128C135.365 50.128 137.007 49.7867 138.458 49.104C139.951 48.4213 141.189 47.4613 142.17 46.224C143.194 44.944 143.962 43.4293 144.474 41.68C145.029 39.9307 145.306 37.968 145.306 35.792C145.306 33.616 145.029 31.6533 144.474 29.904C143.962 28.112 143.194 26.5973 142.17 25.36C141.189 24.08 139.951 23.0987 138.458 22.416C137.007 21.7333 135.365 21.392 133.53 21.392C131.653 21.392 129.989 21.7547 128.538 22.48C127.087 23.1627 125.85 24.144 124.826 25.424C123.845 26.6613 123.077 28.176 122.522 29.968C122.01 31.7173 121.754 33.6587 121.754 35.792ZM155.61 35.792C155.61 39.5893 155.034 42.9387 153.882 45.84C152.773 48.6987 151.237 51.1093 149.274 53.072C147.311 54.992 144.965 56.4427 142.234 57.424C139.546 58.4053 136.645 58.896 133.53 58.896C130.501 58.896 127.642 58.4053 124.954 57.424C122.266 56.4427 119.919 54.992 117.914 53.072C115.909 51.1093 114.33 48.6987 113.178 45.84C112.026 42.9387 111.45 39.5893 111.45 35.792C111.45 31.9947 112.047 28.6667 113.242 25.808C114.437 22.9067 116.037 20.4747 118.042 18.512C120.09 16.5493 122.437 15.0773 125.082 14.096C127.77 13.1147 130.586 12.624 133.53 12.624C136.559 12.624 139.418 13.1147 142.106 14.096C144.794 15.0773 147.141 16.5493 149.146 18.512C151.151 20.4747 152.73 22.9067 153.882 25.808C155.034 28.6667 155.61 31.9947 155.61 35.792ZM176.029 50.384C177.437 50.384 178.589 50.2773 179.485 50.064C180.423 49.808 181.17 49.488 181.725 49.104C182.279 48.6773 182.663 48.1867 182.877 47.632C183.09 47.0773 183.197 46.4587 183.197 45.776C183.197 44.3253 182.514 43.1307 181.149 42.192C179.783 41.2107 177.437 40.1653 174.109 39.056C172.658 38.544 171.207 37.968 169.757 37.328C168.306 36.6453 167.005 35.8133 165.853 34.832C164.701 33.808 163.762 32.592 163.036 31.184C162.311 29.7333 161.949 27.984 161.949 25.936C161.949 23.888 162.333 22.0533 163.101 20.432C163.869 18.768 164.957 17.36 166.365 16.208C167.773 15.056 169.479 14.1813 171.485 13.584C173.49 12.944 175.751 12.624 178.269 12.624C181.255 12.624 183.837 12.944 186.013 13.584C188.189 14.224 189.981 14.928 191.389 15.696L188.509 23.568C187.271 22.928 185.885 22.3733 184.349 21.904C182.855 21.392 181.042 21.136 178.909 21.136C176.519 21.136 174.791 21.4773 173.725 22.16C172.701 22.8 172.189 23.8027 172.189 25.168C172.189 25.9787 172.381 26.6613 172.765 27.216C173.149 27.7707 173.682 28.2827 174.365 28.752C175.09 29.1787 175.901 29.584 176.797 29.968C177.735 30.3093 178.759 30.672 179.869 31.056C182.173 31.9093 184.178 32.7627 185.885 33.616C187.591 34.4267 188.999 35.3867 190.109 36.496C191.261 37.6053 192.114 38.9067 192.669 40.4C193.223 41.8933 193.501 43.7067 193.501 45.84C193.501 49.9787 192.05 53.2 189.149 55.504C186.247 57.7653 181.874 58.896 176.029 58.896C174.066 58.896 172.295 58.768 170.717 58.512C169.138 58.2987 167.73 58.0213 166.493 57.68C165.298 57.3387 164.253 56.976 163.357 56.592C162.503 56.208 161.778 55.8453 161.181 55.504L163.997 47.568C165.319 48.2933 166.941 48.9547 168.861 49.552C170.823 50.1067 173.213 50.384 176.029 50.384ZM221.407 58.896C214.196 58.896 208.692 56.8907 204.895 52.88C201.14 48.8693 199.263 43.1733 199.263 35.792C199.263 32.1227 199.839 28.8587 200.991 26C202.143 23.0987 203.721 20.6667 205.727 18.704C207.732 16.6987 210.121 15.184 212.895 14.16C215.668 13.136 218.676 12.624 221.919 12.624C223.796 12.624 225.503 12.7733 227.039 13.072C228.575 13.328 229.919 13.648 231.071 14.032C232.223 14.3733 233.183 14.736 233.951 15.12C234.719 15.504 235.273 15.8027 235.615 16.016L232.735 24.08C231.369 23.3547 229.769 22.736 227.935 22.224C226.143 21.712 224.095 21.456 221.791 21.456C220.255 21.456 218.74 21.712 217.247 22.224C215.796 22.736 214.495 23.568 213.343 24.72C212.233 25.8293 211.337 27.28 210.655 29.072C209.972 30.864 209.631 33.04 209.631 35.6C209.631 37.648 209.844 39.568 210.271 41.36C210.74 43.1093 211.465 44.624 212.447 45.904C213.471 47.184 214.793 48.208 216.415 48.976C218.036 49.7013 219.999 50.064 222.303 50.064C223.753 50.064 225.055 49.9787 226.207 49.808C227.359 49.6373 228.383 49.4453 229.279 49.232C230.175 48.976 230.964 48.6987 231.647 48.4C232.329 48.1013 232.948 47.824 233.503 47.568L236.255 55.568C234.847 56.4213 232.863 57.1893 230.303 57.872C227.743 58.5547 224.777 58.896 221.407 58.896ZM251.579 58H242.043V24.336H251.579V58ZM252.475 14.608C252.475 16.3573 251.899 17.744 250.747 18.768C249.637 19.7493 248.315 20.24 246.779 20.24C245.243 20.24 243.899 19.7493 242.747 18.768C241.637 17.744 241.083 16.3573 241.083 14.608C241.083 12.8587 241.637 11.4933 242.747 10.512C243.899 9.488 245.243 8.976 246.779 8.976C248.315 8.976 249.637 9.488 250.747 10.512C251.899 11.4933 252.475 12.8587 252.475 14.608ZM268.671 40.912C268.671 43.856 269.332 46.224 270.655 48.016C271.977 49.808 273.94 50.704 276.543 50.704C277.396 50.704 278.185 50.6827 278.911 50.64C279.636 50.5547 280.233 50.4693 280.703 50.384V33.04C280.105 32.656 279.316 32.336 278.335 32.08C277.396 31.824 276.436 31.696 275.455 31.696C270.932 31.696 268.671 34.768 268.671 40.912ZM290.239 56.912C289.385 57.168 288.404 57.424 287.295 57.68C286.185 57.8933 285.012 58.0853 283.775 58.256C282.58 58.4267 281.343 58.5547 280.063 58.64C278.825 58.768 277.631 58.832 276.479 58.832C273.705 58.832 271.231 58.4267 269.055 57.616C266.879 56.8053 265.044 55.6533 263.551 54.16C262.057 52.624 260.905 50.7893 260.095 48.656C259.327 46.48 258.943 44.048 258.943 41.36C258.943 38.6293 259.284 36.176 259.967 34C260.649 31.7813 261.631 29.904 262.911 28.368C264.191 26.832 265.748 25.6587 267.583 24.848C269.46 24.0373 271.593 23.632 273.983 23.632C275.305 23.632 276.479 23.76 277.503 24.016C278.569 24.272 279.636 24.6347 280.703 25.104V9.872L290.239 8.336V56.912ZM312.032 51.344C312.97 51.344 313.866 51.3227 314.72 51.28C315.573 51.2373 316.256 51.1733 316.768 51.088V43.856C316.384 43.7707 315.808 43.6853 315.04 43.6C314.272 43.5147 313.568 43.472 312.928 43.472C312.032 43.472 311.178 43.536 310.368 43.664C309.6 43.7493 308.917 43.9413 308.32 44.24C307.722 44.5387 307.253 44.944 306.912 45.456C306.57 45.968 306.4 46.608 306.4 47.376C306.4 48.8693 306.89 49.9147 307.872 50.512C308.896 51.0667 310.282 51.344 312.032 51.344ZM311.264 23.44C314.08 23.44 316.426 23.76 318.304 24.4C320.181 25.04 321.674 25.9573 322.784 27.152C323.936 28.3467 324.746 29.7973 325.216 31.504C325.685 33.2107 325.92 35.1093 325.92 37.2V57.04C324.554 57.3387 322.656 57.68 320.224 58.064C317.792 58.4907 314.848 58.704 311.392 58.704C309.216 58.704 307.232 58.512 305.44 58.128C303.69 57.744 302.176 57.1253 300.896 56.272C299.616 55.376 298.634 54.224 297.952 52.816C297.269 51.408 296.928 49.68 296.928 47.632C296.928 45.6693 297.312 44.0053 298.08 42.64C298.89 41.2747 299.957 40.1867 301.28 39.376C302.602 38.5653 304.117 37.9893 305.824 37.648C307.53 37.264 309.301 37.072 311.135 37.072C312.373 37.072 313.461 37.136 314.4 37.264C315.381 37.3493 316.17 37.4773 316.768 37.648V36.752C316.768 35.1307 316.277 33.8293 315.296 32.848C314.314 31.8667 312.608 31.376 310.176 31.376C308.554 31.376 306.954 31.504 305.376 31.76C303.797 31.9733 302.432 32.2933 301.28 32.72L300.064 25.04C300.618 24.8693 301.301 24.6987 302.112 24.528C302.965 24.3147 303.882 24.144 304.864 24.016C305.845 23.8453 306.869 23.7173 307.936 23.632C309.045 23.504 310.154 23.44 311.264 23.44ZM342.671 40.912C342.671 43.856 343.332 46.224 344.655 48.016C345.977 49.808 347.94 50.704 350.543 50.704C351.396 50.704 352.185 50.6827 352.911 50.64C353.636 50.5547 354.233 50.4693 354.703 50.384V33.04C354.105 32.656 353.316 32.336 352.335 32.08C351.396 31.824 350.436 31.696 349.455 31.696C344.932 31.696 342.671 34.768 342.671 40.912ZM364.239 56.912C363.385 57.168 362.404 57.424 361.295 57.68C360.185 57.8933 359.012 58.0853 357.775 58.256C356.58 58.4267 355.343 58.5547 354.063 58.64C352.825 58.768 351.631 58.832 350.479 58.832C347.705 58.832 345.231 58.4267 343.055 57.616C340.879 56.8053 339.044 55.6533 337.551 54.16C336.057 52.624 334.905 50.7893 334.095 48.656C333.327 46.48 332.943 44.048 332.943 41.36C332.943 38.6293 333.284 36.176 333.967 34C334.649 31.7813 335.631 29.904 336.911 28.368C338.191 26.832 339.748 25.6587 341.583 24.848C343.46 24.0373 345.593 23.632 347.983 23.632C349.305 23.632 350.479 23.76 351.503 24.016C352.569 24.272 353.636 24.6347 354.703 25.104V9.872L364.239 8.336V56.912ZM371.568 41.424C371.568 38.4373 372.016 35.8347 372.911 33.616C373.85 31.3547 375.066 29.4773 376.56 27.984C378.053 26.4907 379.76 25.36 381.68 24.592C383.642 23.824 385.648 23.44 387.696 23.44C392.474 23.44 396.25 24.912 399.024 27.856C401.797 30.7573 403.184 35.0453 403.184 40.72C403.184 41.2747 403.162 41.8933 403.12 42.576C403.077 43.216 403.034 43.792 402.992 44.304H381.36C381.573 46.2667 382.49 47.824 384.112 48.976C385.733 50.128 387.909 50.704 390.64 50.704C392.389 50.704 394.096 50.5547 395.76 50.256C397.466 49.9147 398.853 49.5093 399.92 49.04L401.2 56.784C400.688 57.04 400.005 57.296 399.152 57.552C398.298 57.808 397.338 58.0213 396.272 58.192C395.248 58.4053 394.138 58.576 392.944 58.704C391.749 58.832 390.554 58.896 389.36 58.896C386.33 58.896 383.685 58.448 381.424 57.552C379.205 56.656 377.349 55.44 375.856 53.904C374.405 52.3253 373.317 50.4693 372.592 48.336C371.909 46.2027 371.568 43.8987 371.568 41.424ZM393.968 37.776C393.925 36.9653 393.776 36.176 393.52 35.408C393.306 34.64 392.944 33.9573 392.432 33.36C391.962 32.7627 391.344 32.272 390.576 31.888C389.85 31.504 388.933 31.312 387.824 31.312C386.757 31.312 385.84 31.504 385.072 31.888C384.304 32.2293 383.664 32.6987 383.152 33.296C382.64 33.8933 382.234 34.5973 381.936 35.408C381.68 36.176 381.488 36.9653 381.36 37.776H393.968Z" fill="#322153"/>
</svg>
