<svg width="202" height="162" viewBox="0 0 202 162" fill="none" xmlns="http://www.w3.org/2000/svg">
<path d="M54 81.9777H132.681" stroke="#322153" stroke-width="4" stroke-linecap="round" stroke-linejoin="round"/>
<path d="M81.5385 39.884H65.8022C63.6295 39.884 61.8682 41.7686 61.8682 44.0934V77.7682C61.8682 80.093 63.6295 81.9776 65.8022 81.9776H81.5385C83.7112 81.9776 85.4726 80.093 85.4726 77.7682V44.0934C85.4726 41.7686 83.7112 39.884 81.5385 39.884Z" fill="#2F88FF" stroke="#322153" stroke-width="4" stroke-linejoin="round"/>
<path d="M120.88 2H89.4072C87.2345 2 85.4731 3.88459 85.4731 6.20936V77.7684C85.4731 80.0932 87.2345 81.9778 89.4072 81.9778H120.88C123.052 81.9778 124.814 80.0932 124.814 77.7684V6.20936C124.814 3.88459 123.052 2 120.88 2Z" fill="#2F88FF" stroke="#322153" stroke-width="4" stroke-linejoin="round"/>
<path d="M101.209 60.9485H109.077" stroke="white" stroke-width="4" stroke-linecap="round" stroke-linejoin="round"/>
<path d="M69.7356 60.9485H77.6037" stroke="white" stroke-width="4" stroke-linecap="round" stroke-linejoin="round"/>
<path d="M101.209 42.0062H109.077" stroke="white" stroke-width="4" stroke-linecap="round" stroke-linejoin="round"/>
<path d="M101.209 23.0643H109.077" stroke="white" stroke-width="4" stroke-linecap="round" stroke-linejoin="round"/>
<path d="M9.684 134.716C10.476 134.716 11.124 134.656 11.628 134.536C12.156 134.392 12.576 134.212 12.888 133.996C13.2 133.756 13.416 133.48 13.536 133.168C13.656 132.856 13.716 132.508 13.716 132.124C13.716 131.308 13.332 130.636 12.564 130.108C11.796 129.556 10.476 128.968 8.604 128.344C7.788 128.056 6.972 127.732 6.156 127.372C5.34 126.988 4.608 126.52 3.96 125.968C3.312 125.392 2.784 124.708 2.376 123.916C1.968 123.1 1.764 122.116 1.764 120.964C1.764 119.812 1.98 118.78 2.412 117.868C2.844 116.932 3.456 116.14 4.248 115.492C5.04 114.844 6 114.352 7.128 114.016C8.256 113.656 9.528 113.476 10.944 113.476C12.624 113.476 14.076 113.656 15.3 114.016C16.524 114.376 17.532 114.772 18.324 115.204L16.704 119.632C16.008 119.272 15.228 118.96 14.364 118.696C13.524 118.408 12.504 118.264 11.304 118.264C9.96 118.264 8.988 118.456 8.388 118.84C7.812 119.2 7.524 119.764 7.524 120.532C7.524 120.988 7.632 121.372 7.848 121.684C8.064 121.996 8.364 122.284 8.748 122.548C9.156 122.788 9.612 123.016 10.116 123.232C10.644 123.424 11.22 123.628 11.844 123.844C13.14 124.324 14.268 124.804 15.228 125.284C16.188 125.74 16.98 126.28 17.604 126.904C18.252 127.528 18.732 128.26 19.044 129.1C19.356 129.94 19.512 130.96 19.512 132.16C19.512 134.488 18.696 136.3 17.064 137.596C15.432 138.868 12.972 139.504 9.684 139.504C8.58 139.504 7.584 139.432 6.696 139.288C5.808 139.168 5.016 139.012 4.32 138.82C3.648 138.628 3.06 138.424 2.556 138.208C2.076 137.992 1.668 137.788 1.332 137.596L2.916 133.132C3.66 133.54 4.572 133.912 5.652 134.248C6.756 134.56 8.1 134.716 9.684 134.716ZM28.5491 126.508C28.5491 127.732 28.6931 128.836 28.9811 129.82C29.2931 130.804 29.7251 131.656 30.2771 132.376C30.8531 133.072 31.5491 133.612 32.3651 133.996C33.1811 134.38 34.1171 134.572 35.1731 134.572C36.2051 134.572 37.1291 134.38 37.9451 133.996C38.7851 133.612 39.4811 133.072 40.0331 132.376C40.6091 131.656 41.0411 130.804 41.3291 129.82C41.6411 128.836 41.7971 127.732 41.7971 126.508C41.7971 125.284 41.6411 124.18 41.3291 123.196C41.0411 122.188 40.6091 121.336 40.0331 120.64C39.4811 119.92 38.7851 119.368 37.9451 118.984C37.1291 118.6 36.2051 118.408 35.1731 118.408C34.1171 118.408 33.1811 118.612 32.3651 119.02C31.5491 119.404 30.8531 119.956 30.2771 120.676C29.7251 121.372 29.2931 122.224 28.9811 123.232C28.6931 124.216 28.5491 125.308 28.5491 126.508ZM47.5931 126.508C47.5931 128.644 47.2691 130.528 46.6211 132.16C45.9971 133.768 45.1331 135.124 44.0291 136.228C42.9251 137.308 41.6051 138.124 40.0691 138.676C38.5571 139.228 36.9251 139.504 35.1731 139.504C33.4691 139.504 31.8611 139.228 30.3491 138.676C28.8371 138.124 27.5171 137.308 26.3891 136.228C25.2611 135.124 24.3731 133.768 23.7251 132.16C23.0771 130.528 22.7531 128.644 22.7531 126.508C22.7531 124.372 23.0891 122.5 23.7611 120.892C24.4331 119.26 25.3331 117.892 26.4611 116.788C27.6131 115.684 28.9331 114.856 30.4211 114.304C31.9331 113.752 33.5171 113.476 35.1731 113.476C36.8771 113.476 38.4851 113.752 39.9971 114.304C41.5091 114.856 42.8291 115.684 43.9571 116.788C45.0851 117.892 45.9731 119.26 46.6211 120.892C47.2691 122.5 47.5931 124.372 47.5931 126.508ZM59.0785 134.716C59.8705 134.716 60.5185 134.656 61.0225 134.536C61.5505 134.392 61.9705 134.212 62.2825 133.996C62.5945 133.756 62.8105 133.48 62.9305 133.168C63.0505 132.856 63.1105 132.508 63.1105 132.124C63.1105 131.308 62.7265 130.636 61.9585 130.108C61.1905 129.556 59.8705 128.968 57.9985 128.344C57.1825 128.056 56.3665 127.732 55.5505 127.372C54.7345 126.988 54.0025 126.52 53.3545 125.968C52.7065 125.392 52.1785 124.708 51.7705 123.916C51.3625 123.1 51.1585 122.116 51.1585 120.964C51.1585 119.812 51.3745 118.78 51.8065 117.868C52.2385 116.932 52.8505 116.14 53.6425 115.492C54.4345 114.844 55.3945 114.352 56.5225 114.016C57.6505 113.656 58.9225 113.476 60.3385 113.476C62.0185 113.476 63.4705 113.656 64.6945 114.016C65.9185 114.376 66.9265 114.772 67.7185 115.204L66.0985 119.632C65.4025 119.272 64.6225 118.96 63.7585 118.696C62.9185 118.408 61.8985 118.264 60.6985 118.264C59.3545 118.264 58.3825 118.456 57.7825 118.84C57.2065 119.2 56.9185 119.764 56.9185 120.532C56.9185 120.988 57.0265 121.372 57.2425 121.684C57.4585 121.996 57.7585 122.284 58.1425 122.548C58.5505 122.788 59.0065 123.016 59.5105 123.232C60.0385 123.424 60.6145 123.628 61.2385 123.844C62.5345 124.324 63.6625 124.804 64.6225 125.284C65.5825 125.74 66.3745 126.28 66.9985 126.904C67.6465 127.528 68.1265 128.26 68.4385 129.1C68.7505 129.94 68.9065 130.96 68.9065 132.16C68.9065 134.488 68.0905 136.3 66.4585 137.596C64.8265 138.868 62.3665 139.504 59.0785 139.504C57.9745 139.504 56.9785 139.432 56.0905 139.288C55.2025 139.168 54.4105 139.012 53.7145 138.82C53.0425 138.628 52.4545 138.424 51.9505 138.208C51.4705 137.992 51.0625 137.788 50.7265 137.596L52.3105 133.132C53.0545 133.54 53.9665 133.912 55.0465 134.248C56.1505 134.56 57.4945 134.716 59.0785 134.716ZM84.6037 139.504C80.5477 139.504 77.4517 138.376 75.3157 136.12C73.2037 133.864 72.1477 130.66 72.1477 126.508C72.1477 124.444 72.4717 122.608 73.1197 121C73.7677 119.368 74.6557 118 75.7837 116.896C76.9117 115.768 78.2557 114.916 79.8157 114.34C81.3757 113.764 83.0677 113.476 84.8917 113.476C85.9477 113.476 86.9077 113.56 87.7717 113.728C88.6357 113.872 89.3917 114.052 90.0397 114.268C90.6877 114.46 91.2277 114.664 91.6597 114.88C92.0917 115.096 92.4037 115.264 92.5957 115.384L90.9757 119.92C90.2077 119.512 89.3077 119.164 88.2757 118.876C87.2677 118.588 86.1157 118.444 84.8197 118.444C83.9557 118.444 83.1037 118.588 82.2637 118.876C81.4477 119.164 80.7157 119.632 80.0677 120.28C79.4437 120.904 78.9397 121.72 78.5557 122.728C78.1717 123.736 77.9797 124.96 77.9797 126.4C77.9797 127.552 78.0997 128.632 78.3397 129.64C78.6037 130.624 79.0117 131.476 79.5637 132.196C80.1397 132.916 80.8837 133.492 81.7957 133.924C82.7077 134.332 83.8117 134.536 85.1077 134.536C85.9237 134.536 86.6557 134.488 87.3037 134.392C87.9517 134.296 88.5277 134.188 89.0317 134.068C89.5357 133.924 89.9797 133.768 90.3637 133.6C90.7477 133.432 91.0957 133.276 91.4077 133.132L92.9557 137.632C92.1637 138.112 91.0477 138.544 89.6077 138.928C88.1677 139.312 86.4997 139.504 84.6037 139.504ZM101.575 139H96.2114V120.064H101.575V139ZM102.079 114.592C102.079 115.576 101.755 116.356 101.107 116.932C100.483 117.484 99.7394 117.76 98.8754 117.76C98.0114 117.76 97.2554 117.484 96.6074 116.932C95.9834 116.356 95.6714 115.576 95.6714 114.592C95.6714 113.608 95.9834 112.84 96.6074 112.288C97.2554 111.712 98.0114 111.424 98.8754 111.424C99.7394 111.424 100.483 111.712 101.107 112.288C101.755 112.84 102.079 113.608 102.079 114.592ZM111.19 129.388C111.19 131.044 111.562 132.376 112.306 133.384C113.05 134.392 114.154 134.896 115.618 134.896C116.098 134.896 116.542 134.884 116.95 134.86C117.358 134.812 117.694 134.764 117.958 134.716V124.96C117.622 124.744 117.178 124.564 116.626 124.42C116.098 124.276 115.558 124.204 115.006 124.204C112.462 124.204 111.19 125.932 111.19 129.388ZM123.322 138.388C122.842 138.532 122.29 138.676 121.666 138.82C121.042 138.94 120.382 139.048 119.686 139.144C119.014 139.24 118.318 139.312 117.598 139.36C116.902 139.432 116.23 139.468 115.582 139.468C114.022 139.468 112.63 139.24 111.406 138.784C110.182 138.328 109.15 137.68 108.31 136.84C107.47 135.976 106.822 134.944 106.366 133.744C105.934 132.52 105.718 131.152 105.718 129.64C105.718 128.104 105.91 126.724 106.294 125.5C106.678 124.252 107.23 123.196 107.95 122.332C108.67 121.468 109.546 120.808 110.578 120.352C111.634 119.896 112.834 119.668 114.178 119.668C114.922 119.668 115.582 119.74 116.158 119.884C116.758 120.028 117.358 120.232 117.958 120.496V111.928L123.322 111.064V138.388ZM135.58 135.256C136.108 135.256 136.612 135.244 137.092 135.22C137.572 135.196 137.956 135.16 138.244 135.112V131.044C138.028 130.996 137.704 130.948 137.272 130.9C136.84 130.852 136.444 130.828 136.084 130.828C135.58 130.828 135.1 130.864 134.644 130.936C134.212 130.984 133.828 131.092 133.492 131.26C133.156 131.428 132.892 131.656 132.7 131.944C132.508 132.232 132.412 132.592 132.412 133.024C132.412 133.864 132.688 134.452 133.24 134.788C133.816 135.1 134.596 135.256 135.58 135.256ZM135.148 119.56C136.732 119.56 138.052 119.74 139.108 120.1C140.164 120.46 141.004 120.976 141.628 121.648C142.276 122.32 142.732 123.136 142.996 124.096C143.26 125.056 143.392 126.124 143.392 127.3V138.46C142.624 138.628 141.556 138.82 140.188 139.036C138.82 139.276 137.164 139.396 135.22 139.396C133.996 139.396 132.88 139.288 131.872 139.072C130.888 138.856 130.036 138.508 129.316 138.028C128.596 137.524 128.044 136.876 127.66 136.084C127.276 135.292 127.084 134.32 127.084 133.168C127.084 132.064 127.3 131.128 127.732 130.36C128.188 129.592 128.788 128.98 129.532 128.524C130.276 128.068 131.128 127.744 132.088 127.552C133.048 127.336 134.044 127.228 135.076 127.228C135.772 127.228 136.384 127.264 136.912 127.336C137.464 127.384 137.908 127.456 138.244 127.552V127.048C138.244 126.136 137.968 125.404 137.416 124.852C136.864 124.3 135.904 124.024 134.536 124.024C133.624 124.024 132.724 124.096 131.836 124.24C130.948 124.36 130.18 124.54 129.532 124.78L128.848 120.46C129.16 120.364 129.544 120.268 130 120.172C130.48 120.052 130.996 119.956 131.548 119.884C132.1 119.788 132.676 119.716 133.276 119.668C133.9 119.596 134.524 119.56 135.148 119.56ZM152.815 129.388C152.815 131.044 153.187 132.376 153.931 133.384C154.675 134.392 155.779 134.896 157.243 134.896C157.723 134.896 158.167 134.884 158.575 134.86C158.983 134.812 159.319 134.764 159.583 134.716V124.96C159.247 124.744 158.803 124.564 158.251 124.42C157.723 124.276 157.183 124.204 156.631 124.204C154.087 124.204 152.815 125.932 152.815 129.388ZM164.947 138.388C164.467 138.532 163.915 138.676 163.291 138.82C162.667 138.94 162.007 139.048 161.311 139.144C160.639 139.24 159.943 139.312 159.223 139.36C158.527 139.432 157.855 139.468 157.207 139.468C155.647 139.468 154.255 139.24 153.031 138.784C151.807 138.328 150.775 137.68 149.935 136.84C149.095 135.976 148.447 134.944 147.991 133.744C147.559 132.52 147.343 131.152 147.343 129.64C147.343 128.104 147.535 126.724 147.919 125.5C148.303 124.252 148.855 123.196 149.575 122.332C150.295 121.468 151.171 120.808 152.203 120.352C153.259 119.896 154.459 119.668 155.803 119.668C156.547 119.668 157.207 119.74 157.783 119.884C158.383 120.028 158.983 120.232 159.583 120.496V111.928L164.947 111.064V138.388ZM169.069 129.676C169.069 127.996 169.321 126.532 169.825 125.284C170.353 124.012 171.037 122.956 171.877 122.116C172.717 121.276 173.677 120.64 174.757 120.208C175.861 119.776 176.989 119.56 178.141 119.56C180.829 119.56 182.953 120.388 184.513 122.044C186.073 123.676 186.853 126.088 186.853 129.28C186.853 129.592 186.841 129.94 186.817 130.324C186.793 130.684 186.769 131.008 186.745 131.296H174.577C174.697 132.4 175.213 133.276 176.125 133.924C177.037 134.572 178.261 134.896 179.797 134.896C180.781 134.896 181.741 134.812 182.677 134.644C183.637 134.452 184.417 134.224 185.017 133.96L185.737 138.316C185.449 138.46 185.065 138.604 184.585 138.748C184.105 138.892 183.565 139.012 182.965 139.108C182.389 139.228 181.765 139.324 181.093 139.396C180.421 139.468 179.749 139.504 179.077 139.504C177.373 139.504 175.885 139.252 174.613 138.748C173.365 138.244 172.321 137.56 171.481 136.696C170.665 135.808 170.053 134.764 169.645 133.564C169.261 132.364 169.069 131.068 169.069 129.676ZM181.669 127.624C181.645 127.168 181.561 126.724 181.417 126.292C181.297 125.86 181.093 125.476 180.805 125.14C180.541 124.804 180.193 124.528 179.761 124.312C179.353 124.096 178.837 123.988 178.213 123.988C177.613 123.988 177.097 124.096 176.665 124.312C176.233 124.504 175.873 124.768 175.585 125.104C175.297 125.44 175.069 125.836 174.901 126.292C174.757 126.724 174.649 127.168 174.577 127.624H181.669Z" fill="#322153"/>
</svg>
